<svg xmlns="http://www.w3.org/2000/svg" width="8.5in" height="11in" viewBox="0 0 612 792">
<title>Page 27 — Patchwork Afternoon</title>

<defs>
<!-- ============ shared face parts ============ -->
<g id="eye"><ellipse rx="4.2" ry="5.6" fill="#000" stroke="none"/><circle cx="1.5" cy="-2.2" r="1.5" fill="#fff" stroke="none"/></g>
<path id="eye-happy" d="M-4.6 1.8 Q0 -4.2 4.6 1.8" fill="none" stroke-width="1.7"/>
<path id="eye-sleep" d="M-4.6 -1.2 Q0 3.8 4.6 -1.2" fill="none" stroke-width="1.7"/>
<ellipse id="blush" rx="5.5" ry="3.2" stroke-width="0.8"/>
<path id="scallop" d="M10 0 A4.2 4.2 0 0 1 7.07 7.07 A4.2 4.2 0 0 1 0 10 A4.2 4.2 0 0 1 -7.07 7.07 A4.2 4.2 0 0 1 -10 0 A4.2 4.2 0 0 1 -7.07 -7.07 A4.2 4.2 0 0 1 0 -10 A4.2 4.2 0 0 1 7.07 -7.07 A4.2 4.2 0 0 1 10 0 Z"/>
<path id="crescent" d="M2 -7.7 A8 8 0 1 0 7.5 3 A6.2 6.2 0 0 1 2 -7.7 Z"/>
<path id="heart" d="M0 5 C-7 -0.5 -9 -6 -4.5 -8.5 C-2 -9.6 0 -7.6 0 -5.6 C0 -7.6 2 -9.6 4.5 -8.5 C9 -6 7 -0.5 0 5 Z"/>
<path id="cloud" d="M-40 10 C-52 10 -52 -6 -38 -5 C-38 -20 -20 -24 -12 -13 C-6 -28 18 -28 22 -11 C35 -16 48 -4 40 10 Z"/>
<path id="star5" d="M0 -10 L2.9 -3.9 L9.5 -3.1 L4.6 1.5 L5.9 8.1 L0 4.8 L-5.9 8.1 L-4.6 1.5 L-9.5 -3.1 L-2.9 -3.9 Z"/>
<path id="star4" d="M0 -10 Q1.6 -1.6 10 0 Q1.6 1.6 0 10 Q-1.6 1.6 -10 0 Q-1.6 -1.6 0 -10 Z"/>
<path id="flake" d="M0 -9 V9 M-7.8 -4.5 L7.8 4.5 M-7.8 4.5 L7.8 -4.5 M0 -9 L-2.4 -11.4 M0 -9 L2.4 -11.4 M0 9 L-2.4 11.4 M0 9 L2.4 11.4" fill="none" stroke-width="1"/>

<!-- ============ Dot the wren (page units, ~24 pt long) ============ -->
<g id="dot">
  <path d="M-4 -2 L-11.5 -12.5 Q-8.5 -15 -6 -12.5 L0.5 -4 Z" stroke-width="1"/>
  <ellipse rx="7" ry="5.6" stroke-width="1.3"/>
  <circle cx="5.6" cy="-4.4" r="4" stroke-width="1.3"/>
  <path d="M9.3 -5.6 L13.2 -4.4 L9.3 -3 Z" stroke-width="0.9"/>
  <circle cx="6.6" cy="-5.4" r="1" fill="#000" stroke="none"/>
  <path d="M-3.4 -0.4 Q0.6 3.2 4 0" fill="none" stroke-width="0.8"/>
  <path d="M-1.2 5.4 V8.8 M2 5.4 V8.8" fill="none" stroke-width="1"/>
</g>
<g id="dot-sleep">
  <path d="M-4 -2 L-11.5 -12.5 Q-8.5 -15 -6 -12.5 L0.5 -4 Z" stroke-width="1"/>
  <ellipse rx="7" ry="5.6" stroke-width="1.3"/>
  <circle cx="5.6" cy="-4.4" r="4" stroke-width="1.3"/>
  <path d="M9.3 -5.6 L13.2 -4.4 L9.3 -3 Z" stroke-width="0.9"/>
  <path d="M5 -5.2 Q6.6 -3.8 8.2 -5.2" fill="none" stroke-width="0.9"/>
  <path d="M-3.4 -0.4 Q0.6 3.2 4 0" fill="none" stroke-width="0.8"/>
</g>

<!-- ============ Friendship-quilt symbols (fit a 40 x 40 box) ============ -->
<g id="sym-acorn"><path d="M-9.5 -1 Q-10 14 0 17 Q10 14 9.5 -1 Z"/><path d="M-13 -0.5 Q0 -17 13 -0.5 Q0 3 -13 -0.5 Z"/><path d="M0 -8.5 Q1 -14 5 -15.5" fill="none"/></g>
<g id="sym-clover"><path d="M0 0 Q5 10 2 17" fill="none"/><circle cx="-5.5" cy="-5.5" r="6.5"/><circle cx="5.5" cy="-5.5" r="6.5"/><circle cx="-5.5" cy="5.5" r="6.5"/><circle cx="5.5" cy="5.5" r="6.5"/><circle r="2.4"/></g>
<g id="sym-fish"><path d="M9 0 L17 -8 L17 8 Z"/><path d="M-15 0 Q-2 -12 11 0 Q-2 12 -15 0 Z"/><circle cx="-8" cy="-1.5" r="1.6" fill="#000" stroke="none"/><path d="M-2 -5 Q1 0 -2 5" fill="none"/></g>
<g id="sym-star"><path d="M-9 -9 L0 -3 L9 -9 L3 0 L9 9 L0 3 L-9 9 L-3 0 Z"/><path d="M0 -17 L4 -4 L17 0 L4 4 L0 17 L-4 4 L-17 0 L-4 -4 Z"/><circle r="3"/></g>
<g id="sym-pompom"><use href="#scallop" transform="scale(1.35)"/><circle r="4.5"/></g>
<g id="sym-moon"><use href="#crescent" transform="scale(1.9)"/></g>
<g id="sym-pebble"><ellipse rx="14" ry="10"/><ellipse cx="-5" cy="-3.5" rx="4" ry="2.2"/></g>
<g id="sym-needle"><path d="M-14 12 C-24 18 -4 22 -2 14 C0 6 14 12 16 4" fill="none"/><g transform="rotate(-45)"><path d="M-19 0 L13 -2.6 Q18 -2.6 18 0 Q18 2.6 13 2.6 Z"/><ellipse cx="13.5" rx="2.3" ry="1" /></g></g>

<!-- ================= BRAMBLE — brown bear (1.0) ================= -->
<g id="br-ear"><circle r="14"/><circle r="7.5" stroke-width="1"/></g>
<g id="br-head">
  <use href="#br-ear" x="-32" y="-34"/><use href="#br-ear" x="32" y="-34"/>
  <circle r="44"/>
  <ellipse cy="12" rx="17" ry="12.5" stroke-width="1.25"/>
  <ellipse cy="5" rx="6.5" ry="4.6" fill="#000" stroke="none"/>
  <path d="M0 9.5 V13 M-6 15 Q-3 18 0 13 Q3 18 6 15" fill="none" stroke-width="1.25"/>
  <use href="#blush" x="-29" y="9"/><use href="#blush" x="29" y="9"/>
</g>
<g id="br-head-back">
  <use href="#br-ear" x="-32" y="-34"/><use href="#br-ear" x="32" y="-34"/>
  <circle r="44"/>
</g>
<path id="br-tp" d="M-26 -108 C-44 -100 -56 -60 -54 -36 C-52 -14 -30 -10 0 -10 C30 -10 52 -14 54 -36 C56 -60 44 -100 26 -108 Z"/>
<clipPath id="br-tc"><use href="#br-tp"/></clipPath>
<g id="br-torso">
  <use href="#br-tp"/>
  <g clip-path="url(#br-tc)" fill="none">
    <path d="M-60 -47 Q0 -36 60 -47" stroke-width="1.25"/>
    <path d="M-60 -53 Q0 -42 60 -53" stroke-width="0.8"/>
    <path d="M-14 -112 L0 -74 L14 -112" stroke-width="1.25"/>
  </g>
  <circle cy="-65" r="2.4" fill="#000" stroke="none"/><circle cy="-56" r="2.4" fill="#000" stroke="none"/>
  <g transform="translate(25 -88)" stroke-width="1"><ellipse cy="4" rx="5" ry="6"/><path d="M-6.5 0.5 Q0 -8 6.5 0.5 Z"/><path d="M0 -4.5 V-8" fill="none"/></g>
</g>
<g id="br-pin"><circle cy="-65" r="2.4" fill="#000" stroke="none"/><circle cy="-56" r="2.4" fill="#000" stroke="none"/><g transform="translate(25 -88)" stroke-width="1"><ellipse cy="4" rx="5" ry="6"/><path d="M-6.5 0.5 Q0 -8 6.5 0.5 Z"/><path d="M0 -4.5 V-8" fill="none"/></g></g>
<g id="br-torso-back">
  <use href="#br-tp"/>
  <g clip-path="url(#br-tc)" fill="none"><path d="M-60 -47 Q0 -36 60 -47" stroke-width="1.25"/><path d="M-60 -53 Q0 -42 60 -53" stroke-width="0.8"/></g>
  <circle cy="-28" r="7"/>
</g>
<g id="br-legs">
  <path d="M-38 -22 V-6 Q-38 2 -24 2 Q-10 2 -10 -6 V-22 Z"/>
  <path d="M10 -22 V-6 Q10 2 24 2 Q38 2 38 -6 V-22 Z"/>
  <path d="M-29 1.6 V-4 M-19 1.6 V-4 M19 1.6 V-4 M29 1.6 V-4" fill="none" stroke-width="0.9"/>
</g>
<g id="br-legs-sit">
  <ellipse cx="-27" cy="-6" rx="17" ry="13"/><ellipse cx="27" cy="-6" rx="17" ry="13"/>
  <ellipse cx="-27" cy="-3" rx="8" ry="6" stroke-width="1"/><ellipse cx="27" cy="-3" rx="8" ry="6" stroke-width="1"/>
  <circle cx="-35" cy="-13" r="3" stroke-width="0.9"/><circle cx="-27" cy="-15.5" r="3" stroke-width="0.9"/><circle cx="-19" cy="-13" r="3" stroke-width="0.9"/>
  <circle cx="35" cy="-13" r="3" stroke-width="0.9"/><circle cx="27" cy="-15.5" r="3" stroke-width="0.9"/><circle cx="19" cy="-13" r="3" stroke-width="0.9"/>
</g>
<path id="br-arm" d="M-11 0 C-11 -13.75 11 -13.75 11 0 L10 30 C10 43.0 -10 43.0 -10 30 Z"/>

<!-- ================= CLOVER — rabbit (0.65 / 0.85 with ears) ================= -->
<g id="cl-head">
  <path d="M-20 -26 C-30 -58 -26 -80 -14 -80 C-2 -80 -2 -54 -6 -30 Z"/>
  <path d="M-15 -32 C-21 -54 -19 -70 -14 -72 C-9 -70 -8 -54 -10 -34 Z" stroke-width="1"/>
  <path d="M6 -29 C2 -48 6 -64 18 -68 C30 -72 42 -66 46 -54 C49 -44 44 -36 38 -38 C34 -40 34 -48 30 -54 C26 -58 22 -56 21 -48 L20 -27 Z"/>
  <path d="M10 -32 C8 -46 10 -58 16 -62 C18 -54 17 -42 16 -32 Z" stroke-width="1"/>
  <g transform="translate(33 -61)" stroke-width="0.9"><path d="M0 0 L3 8" fill="none"/><circle cx="-3.2" cy="-3.2" r="3.6"/><circle cx="3.2" cy="-3.2" r="3.6"/><circle cx="-3.2" cy="3.2" r="3.6"/><circle cx="3.2" cy="3.2" r="3.6"/><circle r="1.4"/></g>
  <circle r="34"/>
  <path d="M-3.5 5 Q0 3 3.5 5 Q0 10 -3.5 5 Z" fill="#000" stroke="none"/>
  <path d="M0 9 V11.5 M-5 13 Q-2.5 15.5 0 11.5 Q2.5 15.5 5 13" fill="none" stroke-width="1.2"/>
  <use href="#blush" x="-22" y="9"/><use href="#blush" x="22" y="9"/>
</g>
<g id="cl-head-back">
  <path d="M-20 -26 C-30 -58 -26 -80 -14 -80 C-2 -80 -2 -54 -6 -30 Z"/>
  <path d="M6 -29 C2 -48 6 -64 18 -68 C30 -72 42 -66 46 -54 C49 -44 44 -36 38 -38 C34 -40 34 -48 30 -54 C26 -58 22 -56 21 -48 L20 -27 Z"/>
  <g transform="translate(33 -61)" stroke-width="0.9"><circle cx="-3.2" cy="-3.2" r="3.6"/><circle cx="3.2" cy="-3.2" r="3.6"/><circle cx="-3.2" cy="3.2" r="3.6"/><circle cx="3.2" cy="3.2" r="3.6"/><circle r="1.4"/></g>
  <circle r="34"/>
</g>
<g id="cl-tail"><use href="#scallop" transform="scale(0.95)"/></g>
<path id="cl-tp" d="M-16 -62 C-32 -56 -36 -30 -32 -18 C-28 -8 -14 -6 0 -6 C14 -6 28 -8 32 -18 C36 -30 32 -56 16 -62 Z"/>
<clipPath id="cl-tc"><use href="#cl-tp"/></clipPath>
<g id="cl-torso"><use href="#cl-tp"/><ellipse cy="-32" rx="13" ry="15" stroke-width="1"/></g>
<g id="cl-feet"><ellipse cx="-14" cy="-4" rx="14" ry="6.5"/><ellipse cx="14" cy="-4" rx="14" ry="6.5"/></g>
<g id="cl-feet-sit"><ellipse cx="-16" cy="-6" rx="10" ry="13"/><ellipse cx="16" cy="-6" rx="10" ry="13"/><ellipse cx="-16" cy="-3" rx="5" ry="6" stroke-width="0.9"/><ellipse cx="16" cy="-3" rx="5" ry="6" stroke-width="0.9"/></g>
<path id="cl-arm" d="M-6 0 C-6 -7.5 6 -7.5 6 0 L5.5 20 C5.5 27.15 -5.5 27.15 -5.5 20 Z"/>

<!-- ================= MISO — cat (0.55) ================= -->
<g id="mi-head">
  <path d="M-33 -12 Q-36 -36 -28 -40 Q-20 -36 -10 -27 Z"/>
  <path d="M-28 -20 Q-30 -32 -27 -34 Q-21 -31 -17 -26 Z" stroke-width="1"/>
  <path d="M33 -12 Q36 -36 28 -40 Q20 -36 10 -27 Z"/>
  <path d="M28 -20 Q30 -32 27 -34 Q21 -31 17 -26 Z" stroke-width="1"/>
  <ellipse rx="36" ry="31"/>
  <path d="M-6 -29 L-5 -22 M0 -31 L0 -23 M6 -29 L5 -22 M-36 -6 L-29 -4 M-36 0 L-29 1 M36 -6 L29 -4 M36 0 L29 1" fill="none" stroke-width="1.4"/>
  <path d="M-3.2 7 L3.2 7 L0 10.5 Z" fill="#000" stroke="#000" stroke-width="1"/>
  <path d="M0 10.5 V12 M-5 13 Q-2.5 16 0 12 Q2.5 16 5 13" fill="none" stroke-width="1.2"/>
  <path d="M-16 10 L-46 6 M-16 13 L-47 14 M-16 16 L-44 21 M16 10 L46 6 M16 13 L47 14 M16 16 L44 21" fill="none" stroke-width="0.8"/>
  <use href="#blush" x="-22" y="4"/><use href="#blush" x="22" y="4"/>
</g>
<g id="mi-tail"><path d="M22 -16 C44 -14 54 -34 48 -52 C44 -62 32 -62 30 -54 C29 -49 34 -46 37 -50 C41 -40 38 -24 22 -6 Z"/></g>
<path id="mi-tp" d="M-16 -46 C-26 -40 -28 -20 -26 -10 C-24 -2 -12 -1 0 -1 C12 -1 24 -2 26 -10 C28 -20 26 -40 16 -46 Z"/>
<clipPath id="mi-tc"><use href="#mi-tp"/></clipPath>
<g id="mi-collar"><path d="M-17 -44 Q0 -37 17 -44 L17 -39 Q0 -32 -17 -39 Z" stroke-width="1.2"/><circle cy="-34" r="1.4" stroke-width="0.8"/><g transform="translate(0 -29)" stroke-width="0.9"><path d="M3.5 0 L8 -3.5 L8 3.5 Z"/><path d="M-5 0 Q0 -4.5 5 0 Q0 4.5 -5 0 Z"/></g></g>
<g id="mi-torso">
  <use href="#mi-tp"/>
  <ellipse cy="-20" rx="11" ry="12" stroke-width="1"/>
  <path d="M-17 -44 Q0 -37 17 -44 L17 -39 Q0 -32 -17 -39 Z" stroke-width="1.2"/>
  <circle cy="-34" r="1.4" stroke-width="0.8"/>
  <g transform="translate(0 -29)" stroke-width="0.9"><path d="M3.5 0 L8 -3.5 L8 3.5 Z"/><path d="M-5 0 Q0 -4.5 5 0 Q0 4.5 -5 0 Z"/></g>
</g>
<g id="mi-feet"><ellipse cx="-10" cy="-2" rx="9" ry="4.5"/><ellipse cx="10" cy="-2" rx="9" ry="4.5"/></g>
<g id="mi-feet-sit"><ellipse cx="-11" cy="-5" rx="7.5" ry="9"/><ellipse cx="11" cy="-5" rx="7.5" ry="9"/></g>
<path id="mi-arm" d="M-5 0 C-5 -6.25 5 -6.25 5 0 L4.6 15 C4.6 20.98 -4.6 20.98 -4.6 15 Z"/>

<!-- ================= JUNIPER — fox (0.75) ================= -->
<path id="ju-hp" d="M0 -32 C24 -32 38 -18 40 -2 C42 8 36 14 26 18 L7 30 Q0 34 -7 30 L-26 18 C-36 14 -42 8 -40 -2 C-38 -18 -24 -32 0 -32 Z"/>
<clipPath id="ju-hc"><use href="#ju-hp"/></clipPath>
<g id="ju-ears">
  <path d="M-37 -12 L-34 -58 Q-33 -60 -31 -58 L-11 -28 Z"/>
  <path d="M-34.7 -48 L-24.3 -48" fill="none" stroke-width="1.25"/>
  <path d="M-32 -20 L-31.5 -42 L-19 -27 Z" stroke-width="1"/>
  <path d="M37 -12 L34 -58 Q33 -60 31 -58 L11 -28 Z"/>
  <path d="M34.7 -48 L24.3 -48" fill="none" stroke-width="1.25"/>
  <path d="M32 -20 L31.5 -42 L19 -27 Z" stroke-width="1"/>
</g>
<g id="ju-head">
  <use href="#ju-ears"/>
  <use href="#ju-hp"/>
  <path clip-path="url(#ju-hc)" d="M-46 2 Q-24 0 -12 8 Q-6 12 0 10 Q6 12 12 8 Q24 0 46 2" fill="none" stroke-width="1.25"/>
  <ellipse cy="22" rx="4.2" ry="3.2" fill="#000" stroke="none"/>
  <path d="M-4 27.5 Q-2 29.5 0 27 Q2 29.5 4 27.5" fill="none" stroke-width="1"/>
  <use href="#blush" x="-25" y="12"/><use href="#blush" x="25" y="12"/>
</g>
<g id="ju-head-back">
  <path d="M-37 -12 L-34 -58 Q-33 -60 -31 -58 L-11 -28 Z"/><path d="M-34.7 -48 L-24.3 -48" fill="none" stroke-width="1.25"/>
  <path d="M37 -12 L34 -58 Q33 -60 31 -58 L11 -28 Z"/><path d="M34.7 -48 L24.3 -48" fill="none" stroke-width="1.25"/>
  <path d="M0 -32 C26 -32 42 -16 41 2 C40 12 34 18 30 22 L24 18 L20 25 L14 20 L8 27 L0 22 L-8 27 L-14 20 L-20 25 L-24 18 L-30 22 C-34 18 -40 12 -41 2 C-42 -16 -26 -32 0 -32 Z"/>
  <path d="M-10 -26 Q0 -30 10 -26" fill="none" stroke-width="1"/>
</g>
<g id="ju-brows"><path d="M-19 -15 L-11 -18 M11 -18 L19 -15" fill="none" stroke-width="1.4"/></g>
<path id="ju-tailp" d="M28 -12 C56 -12 70 -34 66 -60 C64 -80 58 -96 50 -104 C46 -94 42 -84 40 -72 C38 -58 34 -46 28 -36 Z"/>
<clipPath id="ju-tailc"><use href="#ju-tailp"/></clipPath>
<g id="ju-tail"><use href="#ju-tailp"/><path clip-path="url(#ju-tailc)" d="M36 -86 Q52 -80 72 -86" fill="none" stroke-width="1.25"/></g>
<path id="ju-tp" d="M-20 -78 C-34 -70 -38 -40 -34 -22 C-32 -10 -20 -6 0 -6 C20 -6 32 -10 34 -22 C38 -40 34 -70 20 -78 Z"/>
<clipPath id="ju-tc"><use href="#ju-tp"/></clipPath>
<g id="ju-scarf" stroke-width="1.2">
  <path d="M-21 -80 Q0 -70 21 -80 L21 -73 Q0 -63 -21 -73 Z"/>
  <path d="M-12 -70.5 L0 -54 L12 -70.5 Z"/>
  <circle cx="-4" cy="-66" r="1.3" fill="#000" stroke="none"/><circle cx="4" cy="-66" r="1.3" fill="#000" stroke="none"/><circle cy="-60" r="1.3" fill="#000" stroke="none"/>
  <path d="M-24 -73 L-31 -62 L-25 -64 Z"/><path d="M-20 -72 L-22 -60 L-16 -64 Z"/>
  <circle cx="-22" cy="-76" r="4.5"/>
</g>
<g id="ju-torso">
  <use href="#ju-tp"/>
  <path clip-path="url(#ju-tc)" d="M-26 -76 L-17 -50 L-11 -56 L-5 -44 L0 -50 L5 -44 L11 -56 L17 -50 L26 -76" fill="none" stroke-width="1.25"/>
  <use href="#ju-scarf"/>
</g>
<g id="ju-torso-back">
  <use href="#ju-tp"/>
  <g stroke-width="1.2"><path d="M-21 -80 Q0 -72 21 -80 L21 -73 Q0 -65 -21 -73 Z"/></g>
</g>
<g id="ju-knot-back" stroke-width="1.2"><path d="M14 -74 L8 -62 L14 -64 Z"/><path d="M18 -73 L19 -60 L23 -65 Z"/><circle cx="16" cy="-77" r="4.5"/></g>
<g id="ju-feet"><ellipse cx="-13" cy="-4" rx="11" ry="6"/><ellipse cx="13" cy="-4" rx="11" ry="6"/></g>
<g id="ju-feet-sit"><ellipse cx="-15" cy="-6" rx="9" ry="12"/><ellipse cx="15" cy="-6" rx="9" ry="12"/></g>
<path id="ju-arm" d="M-6 0 C-6 -7.5 6 -7.5 6 0 L5.5 20 C5.5 27.15 -5.5 27.15 -5.5 20 Z"/>

<!-- ================= PIP — puppy (0.6) ================= -->
<path id="pi-domep" d="M-36 -8 C-38 -34 -20 -46 0 -46 C20 -46 38 -34 36 -8 Z"/>
<clipPath id="pi-domec"><use href="#pi-domep"/></clipPath>
<g id="pi-hat">
  <use href="#pi-domep"/>
  <g clip-path="url(#pi-domec)" fill="none" stroke-width="1.25"><path d="M-40 -20 Q0 -26 40 -20"/><path d="M-40 -32 Q0 -38 40 -32"/></g>
  <path d="M-39 -12 Q0 -18 39 -12 L39 -1 Q0 -7 -39 -1 Z"/>
  <use href="#scallop" transform="translate(0 -52)"/>
</g>
<g id="pi-head">
  <path d="M-30 -20 C-46 -16 -50 10 -44 28 C-40 36 -32 32 -30 22 C-28 10 -26 -6 -24 -16 Z"/>
  <path d="M30 -20 C46 -16 50 10 44 28 C40 36 32 32 30 22 C28 10 26 -6 24 -16 Z"/>
  <circle r="34"/>
  <path d="M-23 8 C-23 0 -12 -2 -6 3 C-1 9 -3 18 -11 20 C-19 22 -23 15 -23 8 Z" stroke-width="1.25"/>
  <ellipse cy="24" rx="12" ry="8.5" stroke-width="1.25"/>
  <path d="M-5 19.5 Q0 16.5 5 19.5 Q4 24 0 25 Q-4 24 -5 19.5 Z" fill="#000" stroke="none"/>
  <path d="M0 25 V27.5 M-5 29 Q-2.5 31.5 0 27.5 Q2.5 31.5 5 29" fill="none" stroke-width="1.2"/>
  <use href="#blush" x="-23" y="21"/><use href="#blush" x="23" y="21"/>
  <use href="#pi-hat"/>
</g>
<g id="pi-tail"><path d="M-26 -20 C-38 -24 -42 -34 -38 -40 C-34 -36 -30 -30 -24 -28 Z"/></g>
<g id="pi-wag"><path d="M-46 -40 L-52 -45 M-45 -32 L-52 -32" fill="none" stroke-width="1.2"/></g>
<path id="pi-tp" d="M-18 -50 C-30 -44 -32 -20 -28 -10 C-26 -3 -14 -2 0 -2 C14 -2 26 -3 28 -10 C32 -20 30 -44 18 -50 Z"/>
<clipPath id="pi-tc"><use href="#pi-tp"/></clipPath>
<g id="pi-torso"><use href="#pi-tp"/><path d="M4 -16 C4 -24 16 -25 18 -17 C19 -9 8 -7 4 -16 Z" stroke-width="1.2"/></g>
<g id="pi-feet"><ellipse cx="-11" cy="-3" rx="10" ry="5.5"/><ellipse cx="11" cy="-3" rx="10" ry="5.5"/></g>
<g id="pi-feet-sit"><ellipse cx="-13" cy="-6" rx="8.5" ry="10.5"/><ellipse cx="13" cy="-6" rx="8.5" ry="10.5"/></g>
<path id="pi-arm" d="M-5.5 0 C-5.5 -6.88 5.5 -6.88 5.5 0 L5 15 C5 21.5 -5 21.5 -5 15 Z"/>

<!-- ================= TOFU — panda (0.85, widest) ================= -->
<g id="to-head">
  <circle cx="-36" cy="-34" r="13"/><circle cx="36" cy="-34" r="13"/>
  <ellipse rx="48" ry="42"/>
  <path d="M-10 -10 C-4 -4 -8 10 -18 14 C-28 18 -32 8 -28 0 C-24 -8 -16 -14 -10 -10 Z" stroke-width="1.25"/>
  <path d="M10 -10 C4 -4 8 10 18 14 C28 18 32 8 28 0 C24 -8 16 -14 10 -10 Z" stroke-width="1.25"/>
  <ellipse cy="18" rx="14" ry="10" stroke-width="1.25"/>
  <ellipse cy="14" rx="5.5" ry="4" fill="#000" stroke="none"/>
  <path d="M0 18 V21 M-5 23 Q-2.5 26 0 21 Q2.5 26 5 23" fill="none" stroke-width="1.2"/>
  <use href="#blush" x="-36" y="23"/><use href="#blush" x="36" y="23"/>
</g>
<path id="to-tp" d="M-34 -84 C-56 -74 -62 -42 -58 -24 C-54 -8 -34 -6 0 -6 C34 -6 54 -8 58 -24 C62 -42 56 -74 34 -84 Z"/>
<clipPath id="to-tc"><use href="#to-tp"/></clipPath>
<g id="to-pendant"><path d="M-22 -82 L0 -48 L22 -82" fill="none" stroke-width="1"/><use href="#crescent" transform="translate(-1 -40)" stroke-width="1.2"/></g>
<g id="to-torso">
  <use href="#to-tp"/>
  <path clip-path="url(#to-tc)" d="M-70 -60 Q0 -40 70 -60" fill="none" stroke-width="1.25"/>
  <use href="#to-pendant"/>
</g>
<g id="to-legs"><ellipse cx="-22" cy="-5" rx="15" ry="8.5"/><ellipse cx="22" cy="-5" rx="15" ry="8.5"/></g>
<g id="to-legs-sit"><ellipse cx="-30" cy="-2" rx="17" ry="14"/><ellipse cx="30" cy="-2" rx="17" ry="14"/><ellipse cx="-30" cy="1" rx="8" ry="6.5" stroke-width="1"/><ellipse cx="30" cy="1" rx="8" ry="6.5" stroke-width="1"/><circle cx="-38" cy="-8" r="3" stroke-width="0.9"/><circle cx="-30" cy="-10.5" r="3" stroke-width="0.9"/><circle cx="-22" cy="-8" r="3" stroke-width="0.9"/><circle cx="38" cy="-8" r="3" stroke-width="0.9"/><circle cx="30" cy="-10.5" r="3" stroke-width="0.9"/><circle cx="22" cy="-8" r="3" stroke-width="0.9"/></g>
<path id="to-arm" d="M-11 0 C-11 -13.75 11 -13.75 11 0 L10 26 C10 39.0 -10 39.0 -10 26 Z"/>

<!-- ================= PEBBLE — river otter (0.5) ================= -->
<g id="pb-head">
  <circle cx="-24" cy="-8" r="6.5"/><circle cx="24" cy="-8" r="6.5"/>
  <ellipse rx="26" ry="22"/>
  <ellipse cx="-7" cy="8" rx="8" ry="6" stroke-width="1.2"/><ellipse cx="7" cy="8" rx="8" ry="6" stroke-width="1.2"/>
  <ellipse cy="3" rx="5" ry="3.5" fill="#000" stroke="none"/>
  <path d="M-3 15.5 Q0 17.5 3 15.5" fill="none" stroke-width="1"/>
  <path d="M-14 7 L-30 4 M-14 11 L-30 13 M14 7 L30 4 M14 11 L30 13" fill="none" stroke-width="0.75"/>
  <ellipse cx="-19" cy="0" rx="4" ry="2.4" stroke-width="0.75"/><ellipse cx="19" cy="0" rx="4" ry="2.4" stroke-width="0.75"/>
</g>
<g id="pb-tail"><path d="M-22 -8 C-38 -6 -50 -16 -54 -32 C-46 -24 -36 -22 -22 -22 Z"/></g>
<path id="pb-tp" d="M-16 -56 C-26 -50 -28 -24 -24 -10 C-22 -3 -12 -1 0 -1 C12 -1 22 -3 24 -10 C28 -24 26 -50 16 -56 Z"/>
<clipPath id="pb-tc"><use href="#pb-tp"/></clipPath>
<g id="pb-pouch"><ellipse cx="14" cy="-17" rx="5" ry="3.5" stroke-width="1"/><path d="M7 -18 L21 -18 L21 -9 Q21 -4 14 -4 Q7 -4 7 -9 Z" stroke-width="1.2"/><path d="M7 -14 Q14 -11 21 -14" fill="none" stroke-width="1"/></g>
<g id="pb-torso">
  <use href="#pb-tp"/>
  <g clip-path="url(#pb-tc)" fill="none"><path d="M-40 -20 Q0 -14 40 -20" stroke-width="1.25"/><path d="M-40 -44 Q0 -39 40 -44" stroke-width="1"/><path d="M-40 -32 Q0 -27 40 -32" stroke-width="1"/></g>
  <use href="#pb-pouch"/>
</g>
<g id="pb-feet"><ellipse cx="-10" cy="-2" rx="9" ry="4.5"/><ellipse cx="10" cy="-2" rx="9" ry="4.5"/><path d="M-13 -2.5 V1.5 M-8 -2.5 V1.5 M8 -2.5 V1.5 M13 -2.5 V1.5" fill="none" stroke-width="0.75"/></g>
<g id="pb-feet-sit"><ellipse cx="-11" cy="-5" rx="7" ry="9"/><ellipse cx="11" cy="-5" rx="7" ry="9"/><path d="M-13 -1 V3 M-9 -1 V3 M9 -1 V3 M13 -1 V3" fill="none" stroke-width="0.75"/></g>
<g id="pb-arm"><path d="M-5 0 C-5 -6.25 5 -6.25 5 0 L4.6 13 C4.6 18.98 -4.6 18.98 -4.6 13 Z"/><path d="M-1.6 18.6 V15.5 M1.6 18.6 V15.5" fill="none" stroke-width="0.75"/></g>

<!-- ================= THIMBLE — mouse (0.3) ================= -->
<g id="th-pencil" stroke-width="0.9"><path d="M-15 -2.6 L9 -2.6 L15 0 L9 2.6 L-15 2.6 Z"/><path d="M-15 -2.6 L-19 -2.6 L-19 2.6 L-15 2.6 Z"/><path d="M9 -2.6 V2.6" fill="none"/><path d="M13 -0.9 L15 0 L13 0.9 Z" fill="#000"/></g>
<g id="th-head">
  <use href="#th-pencil" transform="translate(-21 -16) rotate(-32)"/>
  <circle cx="-19" cy="-14" r="15"/><circle cx="-19" cy="-14" r="9" stroke-width="0.9"/>
  <circle cx="19" cy="-14" r="15"/><circle cx="19" cy="-14" r="9" stroke-width="0.9"/>
  <path d="M0 -18 C14 -18 20 -8 19 0 C18 10 8 16 0 19 C-8 16 -18 10 -19 0 C-20 -8 -14 -18 0 -18 Z"/>
  <circle cy="17" r="2.6" fill="#000" stroke="none"/>
  <path d="M-5 13 L-17 11 M-5 15.5 L-16 17.5 M5 13 L17 11 M5 15.5 L16 17.5" fill="none" stroke-width="0.6"/>
  <ellipse cx="-11.5" cy="7" rx="3.2" ry="1.9" stroke-width="0.6"/><ellipse cx="11.5" cy="7" rx="3.2" ry="1.9" stroke-width="0.6"/>
</g>
<g id="th-tail" stroke-width="1"><path d="M12 -6 C30 -4 36 -20 30 -30 C26 -36 32 -44 40 -40" fill="none" stroke-width="1.2"/><path d="M29 -33 L22 -37 L23 -28 Z"/><path d="M29 -33 L35 -39 L36 -30 Z"/><circle cx="29" cy="-33" r="2"/></g>
<path id="th-tp" d="M-9 -22 C-16 -18 -17 -6 -14 -2 C-12 0 -6 0 0 0 C6 0 12 0 14 -2 C17 -6 16 -18 9 -22 Z"/>
<clipPath id="th-tc"><use href="#th-tp"/></clipPath>
<g id="th-torso"><use href="#th-tp"/></g>
<g id="th-feet"><ellipse cx="-6" cy="-1" rx="6" ry="3"/><ellipse cx="6" cy="-1" rx="6" ry="3"/></g>
<g id="th-feet-sit"><ellipse cx="-7" cy="-3" rx="4.5" ry="5.5"/><ellipse cx="7" cy="-3" rx="4.5" ry="5.5"/></g>
<path id="th-arm" d="M-3 0 C-3 -3.75 3 -3.75 3 0 L2.8 8 C2.8 11.64 -2.8 11.64 -2.8 8 Z"/>
<g id="br-sleeve"><use href="#br-arm"/><path d="M-10 29 H10" fill="none" stroke-width="1.32"/></g>
<g id="cl-sleeve"><use href="#cl-arm"/><path d="M-5.5 19 H5.5" fill="none" stroke-width="0.72"/></g>
<g id="mi-sleeve"><use href="#mi-arm"/><path d="M-4.6 14 H4.6" fill="none" stroke-width="0.60"/></g>
<g id="ju-sleeve"><use href="#ju-arm"/><path d="M-5.5 19 H5.5" fill="none" stroke-width="0.72"/></g>
<g id="pi-sleeve"><use href="#pi-arm"/><path d="M-5 14 H5" fill="none" stroke-width="0.66"/></g>
<g id="to-sleeve"><use href="#to-arm"/><path d="M-10 25 H10" fill="none" stroke-width="1.32"/></g>
<g id="pb-sleeve"><use href="#pb-arm"/><path d="M-4.6 12 H4.6" fill="none" stroke-width="0.60"/></g>
<g id="th-sleeve"><use href="#th-arm"/><path d="M-2.8 7 H2.8" fill="none" stroke-width="0.60"/></g>
</defs>

<defs><clipPath id="live"><rect x="45" y="36" width="531" height="720" rx="14"/></clipPath></defs>
<rect width="612" height="792" fill="#fff"/>
<g fill="#fff" stroke="#000" stroke-linejoin="round" stroke-linecap="round" stroke-width="1.25">
<g clip-path="url(#live)">
<clipPath id="k150"><path d="M30 30 H600 V60 L30 250 Z"/></clipPath><path d="M30 30 H600 V60 L30 250 Z" stroke-width="2"/><g clip-path="url(#k150)" fill="none"><path d="M80 0 L-40 300 M150 0 L30 300 M220 0 L100 300 M290 0 L170 300 M360 0 L240 300 M430 0 L310 300 M500 0 L380 300 M570 0 L450 300 M640 0 L520 300 M710 0 L590 300" fill="none" stroke-width="1.0"/></g><path d="M30 30 H600 V60 L30 250 Z" fill="none" stroke-width="2"/><path d="M30 244 L600 54 L600 70 L30 260 Z" stroke-width="1.8"/><path d="M30 302 L600 112 L600 128 L30 318 Z" stroke-width="1.8"/><path d="M30 360 L600 170 L600 186 L30 376 Z" stroke-width="1.8"/><circle cx="504" cy="236" r="54" stroke-width="2.2"/><circle cx="504" cy="236" r="44" stroke-width="1.4"/><clipPath id="k151"><path d="M460 236 A44 44 0 1 0 548 236 A44 44 0 1 0 460 236 Z"/></clipPath><path d="M460 236 A44 44 0 1 0 548 236 A44 44 0 1 0 460 236 Z" stroke-width="1.4"/><g clip-path="url(#k151)" fill="#fff"><use href="#cloud" transform="translate(500 226) scale(0.5)" stroke-width="2.6"/></g><path d="M460 236 A44 44 0 1 0 548 236 A44 44 0 1 0 460 236 Z" fill="none" stroke-width="1.4"/><path d="M460 236 Q440 200 450 186 Q470 220 470 260 Q460 250 460 236 Z" stroke-width="1.6"/><path d="M40 270 Q300 400 560 250" fill="none" stroke-width="1.4"/><path d="M65.0 288.3 H95.0 L80.0 322.8 Z" stroke-width="1.5"/><path d="M105.0 303.4 H135.0 L120.0 337.9 Z" stroke-width="1.5"/><path d="M145.0 315.1 H175.0 L160.0 349.6 Z" stroke-width="1.5"/><path d="M185.0 323.5 H215.0 L200.0 358.0 Z" stroke-width="1.5"/><path d="M225.0 328.6 H255.0 L240.0 363.1 Z" stroke-width="1.5"/><path d="M265.0 330.4 H295.0 L280.0 364.9 Z" stroke-width="1.5"/><path d="M305.0 328.8 H335.0 L320.0 363.3 Z" stroke-width="1.5"/><path d="M345.0 324.0 H375.0 L360.0 358.5 Z" stroke-width="1.5"/><path d="M385.0 315.8 H415.0 L400.0 350.3 Z" stroke-width="1.5"/><path d="M425.0 304.3 H455.0 L440.0 338.8 Z" stroke-width="1.5"/><path d="M465.0 289.5 H495.0 L480.0 324.0 Z" stroke-width="1.5"/><path d="M505.0 271.4 H535.0 L520.0 305.9 Z" stroke-width="1.5"/><g transform="translate(130 150) scale(1.0)" stroke-width="1.40"><path d="M0 -40 V-26" fill="none"/><rect x="-9" y="-28" width="18" height="6" rx="2"/><ellipse cy="0" rx="20" ry="24"/><path d="M-19 -8 Q0 -4 19 -8 M-19 8 Q0 12 19 8 M0 -24 V24" fill="none" stroke-width="0.9"/><rect x="-9" y="22" width="18" height="6" rx="2"/></g><g transform="translate(380 120) scale(0.9)" stroke-width="1.56"><path d="M0 -40 V-26" fill="none"/><rect x="-9" y="-28" width="18" height="6" rx="2"/><ellipse cy="0" rx="20" ry="24"/><path d="M-19 -8 Q0 -4 19 -8 M-19 8 Q0 12 19 8 M0 -24 V24" fill="none" stroke-width="0.9"/><rect x="-9" y="22" width="18" height="6" rx="2"/></g><path d="M130 110 V70 M380 84 V50" fill="none" stroke-width="1.2"/><g transform="translate(60 410)" stroke-width="1.4"><rect x="-10" y="-26" width="20" height="5" rx="2"/><rect x="-10" y="0" width="20" height="5" rx="2"/><rect x="-7" y="-21" width="14" height="21"/><path d="M-7 -14 H7 M-7 -7 H7" fill="none" stroke-width="0.8"/></g><g transform="translate(86 410)" stroke-width="1.4"><rect x="-10" y="-26" width="20" height="5" rx="2"/><rect x="-10" y="0" width="20" height="5" rx="2"/><rect x="-7" y="-21" width="14" height="21"/><path d="M-7 -14 H7 M-7 -7 H7" fill="none" stroke-width="0.8"/></g><g transform="translate(112 410)" stroke-width="1.4"><rect x="-10" y="-26" width="20" height="5" rx="2"/><rect x="-10" y="0" width="20" height="5" rx="2"/><rect x="-7" y="-21" width="14" height="21"/><path d="M-7 -14 H7 M-7 -7 H7" fill="none" stroke-width="0.8"/></g><g transform="translate(138 410)" stroke-width="1.4"><rect x="-10" y="-26" width="20" height="5" rx="2"/><rect x="-10" y="0" width="20" height="5" rx="2"/><rect x="-7" y="-21" width="14" height="21"/><path d="M-7 -14 H7 M-7 -7 H7" fill="none" stroke-width="0.8"/></g><g transform="translate(164 410)" stroke-width="1.4"><rect x="-10" y="-26" width="20" height="5" rx="2"/><rect x="-10" y="0" width="20" height="5" rx="2"/><rect x="-7" y="-21" width="14" height="21"/><path d="M-7 -14 H7 M-7 -7 H7" fill="none" stroke-width="0.8"/></g><g transform="translate(190 410)" stroke-width="1.4"><rect x="-10" y="-26" width="20" height="5" rx="2"/><rect x="-10" y="0" width="20" height="5" rx="2"/><rect x="-7" y="-21" width="14" height="21"/><path d="M-7 -14 H7 M-7 -7 H7" fill="none" stroke-width="0.8"/></g><rect x="40" y="414" width="170" height="8" rx="2" stroke-width="1.6"/><g transform="translate(200 520) rotate(0) scale(1.35)" stroke-width="1.481"><use href="#cl-tail" transform="translate(-30 -22)"/><use href="#cl-feet"/><use href="#cl-torso"/><g transform="translate(0 -92) rotate(0)"><use href="#cl-head"/><use href="#eye-happy" transform="translate(-12 -2) scale(0.92)"/><use href="#eye-happy" transform="translate(12 -2) scale(0.92)"/></g></g><g transform="translate(400 452) rotate(0) scale(1.5)" stroke-width="1.333"><use href="#th-tail"/><use href="#th-torso"/><use href="#th-feet"/><g transform="translate(0 -38) rotate(0)"><use href="#th-head"/><use href="#eye-happy" transform="translate(-7 0) scale(0.62)"/><use href="#eye-happy" transform="translate(7 0) scale(0.62)"/></g></g><path d="M40 440 H590 L600 520 H30 Z" stroke-width="2.2"/><g transform="translate(201 470)" stroke-width="1.4"><rect x="-14" y="-16" width="28" height="6" rx="2"/><path d="M-14 -10 H14 L18 -2 L14 6 L18 14 L14 22 H-14 L-18 14 L-14 6 L-18 -2 Z"/><rect x="-14" y="22" width="28" height="6" rx="2"/></g><g transform="translate(200 520) rotate(0) scale(1.35)" stroke-width="1.481"><use href="#cl-arm" transform="translate(-24 -54) rotate(-30)"/><use href="#cl-arm" transform="translate(24 -54) rotate(30)"/></g><rect x="80" y="452" width="64" height="40" rx="3" stroke-width="1.8"/><rect x="80" y="462" width="64" height="8" stroke-width="1.2"/><circle cx="88" cy="458" r="4" stroke-width="1.2"/><circle cx="136" cy="458" r="4" stroke-width="1.2"/><circle cx="88" cy="486" r="4" stroke-width="1.2"/><circle cx="136" cy="486" r="4" stroke-width="1.2"/><rect x="272" y="460" width="40" height="50" rx="2" stroke-width="1.5" transform="rotate(-8 292 485)"/><g transform="translate(290 482) rotate(0)" stroke-width="1"><circle cx="0" cy="-5.5" r="4.8" transform="rotate(0)"/><circle cx="0" cy="-5.5" r="4.8" transform="rotate(72)"/><circle cx="0" cy="-5.5" r="4.8" transform="rotate(144)"/><circle cx="0" cy="-5.5" r="4.8" transform="rotate(216)"/><circle cx="0" cy="-5.5" r="4.8" transform="rotate(288)"/><circle r="3.0"/></g><rect x="300" y="470" width="40" height="46" rx="2" stroke-width="1.5" transform="rotate(10 320 493)"/><g transform="translate(320 494) rotate(0)" stroke-width="1"><circle cx="0" cy="-5.0" r="4.3" transform="rotate(0)"/><circle cx="0" cy="-5.0" r="4.3" transform="rotate(72)"/><circle cx="0" cy="-5.0" r="4.3" transform="rotate(144)"/><circle cx="0" cy="-5.0" r="4.3" transform="rotate(216)"/><circle cx="0" cy="-5.0" r="4.3" transform="rotate(288)"/><circle r="2.7"/></g><path d="M450 500 V450 Q450 430 470 430 H560 Q576 430 576 446 V500 Z" stroke-width="2"/><path d="M470 500 V470 Q470 458 482 458 H560 V500" fill="none" stroke-width="1.4"/><rect x="440" y="500" width="146" height="10" rx="2" stroke-width="1.8"/><path d="M500 458 V478 M494 478 H506" fill="none" stroke-width="1.6"/><circle cx="560" cy="446" r="6" stroke-width="1.2"/><ellipse cx="236" cy="500" rx="16" ry="6" stroke-width="1.5"/><rect x="220" y="484" width="32" height="16" stroke-width="1.5"/><ellipse cx="236" cy="484" rx="16" ry="6" stroke-width="1.5"/><path d="M252 492 Q270 506 262 520" fill="none" stroke-width="1.4"/><path d="M374.0 472 H414.0 V506 Q414.0 512 394 512 Q374.0 512 374.0 506 Z" stroke-width="1.6"/><rect x="372.0" y="464" width="44" height="10" rx="3" stroke-width="1.44"/><circle cx="384" cy="494" r="5" stroke-width="1.1"/><circle cx="382.4" cy="492.4" r="0.9" fill="#000" stroke="none"/><circle cx="385.6" cy="495.6" r="0.9" fill="#000" stroke="none"/><circle cx="402" cy="490" r="5" stroke-width="1.1"/><circle cx="400.4" cy="488.4" r="0.9" fill="#000" stroke="none"/><circle cx="403.6" cy="491.6" r="0.9" fill="#000" stroke="none"/><circle cx="400.4" cy="491.6" r="0.9" fill="#000" stroke="none"/><circle cx="403.6" cy="488.4" r="0.9" fill="#000" stroke="none"/><circle cx="392" cy="504" r="5" stroke-width="1.1"/><circle cx="390.4" cy="502.4" r="0.9" fill="#000" stroke="none"/><circle cx="393.6" cy="505.6" r="0.9" fill="#000" stroke="none"/><circle cx="390.4" cy="505.6" r="0.9" fill="#000" stroke="none"/><circle cx="393.6" cy="502.4" r="0.9" fill="#000" stroke="none"/><circle cx="406" cy="504" r="5" stroke-width="1.1"/><circle cx="404.4" cy="502.4" r="0.9" fill="#000" stroke="none"/><circle cx="407.6" cy="505.6" r="0.9" fill="#000" stroke="none"/><use href="#dot" transform="translate(394 455) rotate(0) scale(0.9 0.9)" stroke-width="1.3"/><g transform="translate(400 452) rotate(0) scale(1.5)" stroke-width="1.333"><use href="#th-arm" transform="translate(-10 -17) rotate(-30)"/><use href="#th-arm" transform="translate(10 -17) rotate(30)"/></g><path d="M396 440 L420 424" fill="none" stroke-width="1.4"/><clipPath id="k152"><path d="M60 520 H560 L572 760 H48 Z"/></clipPath><path d="M60 520 H560 L572 760 H48 Z" stroke-width="2.2"/><g clip-path="url(#k152)" fill="none"><rect x="84" y="538" width="104" height="96" stroke-width="1.6"/><rect x="88" y="542" width="96" height="88" fill="none" stroke-width="0.8" stroke-dasharray="3 3"/><g transform="translate(136.0 586.0) scale(2.00)" stroke-width="0.70"><use href="#sym-acorn" transform="scale(0.85)"/></g><rect x="200" y="538" width="104" height="96" stroke-width="1.6"/><rect x="204" y="542" width="96" height="88" fill="none" stroke-width="0.8" stroke-dasharray="3 3"/><g transform="translate(252.0 586.0) scale(2.00)" stroke-width="0.70"><use href="#sym-clover" transform="scale(0.85)"/></g><rect x="316" y="538" width="104" height="96" stroke-width="1.6"/><rect x="320" y="542" width="96" height="88" fill="none" stroke-width="0.8" stroke-dasharray="3 3"/><g transform="translate(368.0 586.0) scale(2.00)" stroke-width="0.70"><use href="#sym-fish" transform="scale(0.85)"/></g><rect x="432" y="538" width="104" height="96" stroke-width="1.6"/><rect x="436" y="542" width="96" height="88" fill="none" stroke-width="0.8" stroke-dasharray="3 3"/><g transform="translate(484.0 586.0) scale(2.00)" stroke-width="0.70"><use href="#sym-star" transform="scale(0.85)"/></g><rect x="84" y="644" width="104" height="96" stroke-width="1.6"/><rect x="88" y="648" width="96" height="88" fill="none" stroke-width="0.8" stroke-dasharray="3 3"/><g transform="translate(136.0 692.0) scale(2.00)" stroke-width="0.70"><use href="#sym-pompom" transform="scale(0.85)"/></g><rect x="200" y="644" width="104" height="96" stroke-width="1.6"/><rect x="204" y="648" width="96" height="88" fill="none" stroke-width="0.8" stroke-dasharray="3 3"/><g transform="translate(252.0 692.0) scale(2.00)" stroke-width="0.70"><use href="#sym-moon" transform="scale(0.85)"/></g><rect x="316" y="644" width="104" height="96" stroke-width="1.6"/><rect x="320" y="648" width="96" height="88" fill="none" stroke-width="0.8" stroke-dasharray="3 3"/><g transform="translate(368.0 692.0) scale(2.00)" stroke-width="0.70"><use href="#sym-pebble" transform="scale(0.85)"/></g><rect x="432" y="644" width="104" height="96" stroke-width="1.6"/><rect x="436" y="648" width="96" height="88" fill="none" stroke-width="0.8" stroke-dasharray="3 3"/><g transform="translate(484.0 692.0) scale(2.00)" stroke-width="0.70"><use href="#sym-needle" transform="scale(0.85)"/></g></g><path d="M60 520 H560 L572 760 H48 Z" fill="none" stroke-width="2.2"/><path d="M60 528 H560" fill="none" stroke-dasharray="3 3" stroke-width="0.8"/><rect x="438" y="644" width="108" height="98" stroke-width="1.6" stroke-dasharray="5 4" fill="#fff"/><rect x="470" y="670" transform="rotate(8 505 702)" width="70" height="64" stroke-width="1.6"/><rect x="474" y="674" width="62" height="56" fill="none" stroke-width="0.8" stroke-dasharray="3 3"/><g transform="translate(505.0 702.0) scale(1.33)" stroke-width="1.05"><use href="#sym-needle" transform="scale(0.85)"/></g>
</g>
<rect x="45" y="36" width="531" height="720" rx="14" fill="none" stroke-width="2.6"/>
</g>
</svg>
