<svg xmlns="http://www.w3.org/2000/svg" width="8.5in" height="11in" viewBox="0 0 612 792">
<title>Page 28 — Picnic Under the Old Oak</title>

<defs>
<!-- ============ shared face parts ============ -->
<g id="eye"><ellipse rx="4.2" ry="5.6" fill="#000" stroke="none"/><circle cx="1.5" cy="-2.2" r="1.5" fill="#fff" stroke="none"/></g>
<path id="eye-happy" d="M-4.6 1.8 Q0 -4.2 4.6 1.8" fill="none" stroke-width="1.7"/>
<path id="eye-sleep" d="M-4.6 -1.2 Q0 3.8 4.6 -1.2" fill="none" stroke-width="1.7"/>
<ellipse id="blush" rx="5.5" ry="3.2" stroke-width="0.8"/>
<path id="scallop" d="M10 0 A4.2 4.2 0 0 1 7.07 7.07 A4.2 4.2 0 0 1 0 10 A4.2 4.2 0 0 1 -7.07 7.07 A4.2 4.2 0 0 1 -10 0 A4.2 4.2 0 0 1 -7.07 -7.07 A4.2 4.2 0 0 1 0 -10 A4.2 4.2 0 0 1 7.07 -7.07 A4.2 4.2 0 0 1 10 0 Z"/>
<path id="crescent" d="M2 -7.7 A8 8 0 1 0 7.5 3 A6.2 6.2 0 0 1 2 -7.7 Z"/>
<path id="heart" d="M0 5 C-7 -0.5 -9 -6 -4.5 -8.5 C-2 -9.6 0 -7.6 0 -5.6 C0 -7.6 2 -9.6 4.5 -8.5 C9 -6 7 -0.5 0 5 Z"/>
<path id="cloud" d="M-40 10 C-52 10 -52 -6 -38 -5 C-38 -20 -20 -24 -12 -13 C-6 -28 18 -28 22 -11 C35 -16 48 -4 40 10 Z"/>
<path id="star5" d="M0 -10 L2.9 -3.9 L9.5 -3.1 L4.6 1.5 L5.9 8.1 L0 4.8 L-5.9 8.1 L-4.6 1.5 L-9.5 -3.1 L-2.9 -3.9 Z"/>
<path id="star4" d="M0 -10 Q1.6 -1.6 10 0 Q1.6 1.6 0 10 Q-1.6 1.6 -10 0 Q-1.6 -1.6 0 -10 Z"/>
<path id="flake" d="M0 -9 V9 M-7.8 -4.5 L7.8 4.5 M-7.8 4.5 L7.8 -4.5 M0 -9 L-2.4 -11.4 M0 -9 L2.4 -11.4 M0 9 L-2.4 11.4 M0 9 L2.4 11.4" fill="none" stroke-width="1"/>

<!-- ============ Dot the wren (page units, ~24 pt long) ============ -->
<g id="dot">
  <path d="M-4 -2 L-11.5 -12.5 Q-8.5 -15 -6 -12.5 L0.5 -4 Z" stroke-width="1"/>
  <ellipse rx="7" ry="5.6" stroke-width="1.3"/>
  <circle cx="5.6" cy="-4.4" r="4" stroke-width="1.3"/>
  <path d="M9.3 -5.6 L13.2 -4.4 L9.3 -3 Z" stroke-width="0.9"/>
  <circle cx="6.6" cy="-5.4" r="1" fill="#000" stroke="none"/>
  <path d="M-3.4 -0.4 Q0.6 3.2 4 0" fill="none" stroke-width="0.8"/>
  <path d="M-1.2 5.4 V8.8 M2 5.4 V8.8" fill="none" stroke-width="1"/>
</g>
<g id="dot-sleep">
  <path d="M-4 -2 L-11.5 -12.5 Q-8.5 -15 -6 -12.5 L0.5 -4 Z" stroke-width="1"/>
  <ellipse rx="7" ry="5.6" stroke-width="1.3"/>
  <circle cx="5.6" cy="-4.4" r="4" stroke-width="1.3"/>
  <path d="M9.3 -5.6 L13.2 -4.4 L9.3 -3 Z" stroke-width="0.9"/>
  <path d="M5 -5.2 Q6.6 -3.8 8.2 -5.2" fill="none" stroke-width="0.9"/>
  <path d="M-3.4 -0.4 Q0.6 3.2 4 0" fill="none" stroke-width="0.8"/>
</g>

<!-- ============ Friendship-quilt symbols (fit a 40 x 40 box) ============ -->
<g id="sym-acorn"><path d="M-9.5 -1 Q-10 14 0 17 Q10 14 9.5 -1 Z"/><path d="M-13 -0.5 Q0 -17 13 -0.5 Q0 3 -13 -0.5 Z"/><path d="M0 -8.5 Q1 -14 5 -15.5" fill="none"/></g>
<g id="sym-clover"><path d="M0 0 Q5 10 2 17" fill="none"/><circle cx="-5.5" cy="-5.5" r="6.5"/><circle cx="5.5" cy="-5.5" r="6.5"/><circle cx="-5.5" cy="5.5" r="6.5"/><circle cx="5.5" cy="5.5" r="6.5"/><circle r="2.4"/></g>
<g id="sym-fish"><path d="M9 0 L17 -8 L17 8 Z"/><path d="M-15 0 Q-2 -12 11 0 Q-2 12 -15 0 Z"/><circle cx="-8" cy="-1.5" r="1.6" fill="#000" stroke="none"/><path d="M-2 -5 Q1 0 -2 5" fill="none"/></g>
<g id="sym-star"><path d="M-9 -9 L0 -3 L9 -9 L3 0 L9 9 L0 3 L-9 9 L-3 0 Z"/><path d="M0 -17 L4 -4 L17 0 L4 4 L0 17 L-4 4 L-17 0 L-4 -4 Z"/><circle r="3"/></g>
<g id="sym-pompom"><use href="#scallop" transform="scale(1.35)"/><circle r="4.5"/></g>
<g id="sym-moon"><use href="#crescent" transform="scale(1.9)"/></g>
<g id="sym-pebble"><ellipse rx="14" ry="10"/><ellipse cx="-5" cy="-3.5" rx="4" ry="2.2"/></g>
<g id="sym-needle"><path d="M-14 12 C-24 18 -4 22 -2 14 C0 6 14 12 16 4" fill="none"/><g transform="rotate(-45)"><path d="M-19 0 L13 -2.6 Q18 -2.6 18 0 Q18 2.6 13 2.6 Z"/><ellipse cx="13.5" rx="2.3" ry="1" /></g></g>

<!-- ================= BRAMBLE — brown bear (1.0) ================= -->
<g id="br-ear"><circle r="14"/><circle r="7.5" stroke-width="1"/></g>
<g id="br-head">
  <use href="#br-ear" x="-32" y="-34"/><use href="#br-ear" x="32" y="-34"/>
  <circle r="44"/>
  <ellipse cy="12" rx="17" ry="12.5" stroke-width="1.25"/>
  <ellipse cy="5" rx="6.5" ry="4.6" fill="#000" stroke="none"/>
  <path d="M0 9.5 V13 M-6 15 Q-3 18 0 13 Q3 18 6 15" fill="none" stroke-width="1.25"/>
  <use href="#blush" x="-29" y="9"/><use href="#blush" x="29" y="9"/>
</g>
<g id="br-head-back">
  <use href="#br-ear" x="-32" y="-34"/><use href="#br-ear" x="32" y="-34"/>
  <circle r="44"/>
</g>
<path id="br-tp" d="M-26 -108 C-44 -100 -56 -60 -54 -36 C-52 -14 -30 -10 0 -10 C30 -10 52 -14 54 -36 C56 -60 44 -100 26 -108 Z"/>
<clipPath id="br-tc"><use href="#br-tp"/></clipPath>
<g id="br-torso">
  <use href="#br-tp"/>
  <g clip-path="url(#br-tc)" fill="none">
    <path d="M-60 -47 Q0 -36 60 -47" stroke-width="1.25"/>
    <path d="M-60 -53 Q0 -42 60 -53" stroke-width="0.8"/>
    <path d="M-14 -112 L0 -74 L14 -112" stroke-width="1.25"/>
  </g>
  <circle cy="-65" r="2.4" fill="#000" stroke="none"/><circle cy="-56" r="2.4" fill="#000" stroke="none"/>
  <g transform="translate(25 -88)" stroke-width="1"><ellipse cy="4" rx="5" ry="6"/><path d="M-6.5 0.5 Q0 -8 6.5 0.5 Z"/><path d="M0 -4.5 V-8" fill="none"/></g>
</g>
<g id="br-pin"><circle cy="-65" r="2.4" fill="#000" stroke="none"/><circle cy="-56" r="2.4" fill="#000" stroke="none"/><g transform="translate(25 -88)" stroke-width="1"><ellipse cy="4" rx="5" ry="6"/><path d="M-6.5 0.5 Q0 -8 6.5 0.5 Z"/><path d="M0 -4.5 V-8" fill="none"/></g></g>
<g id="br-torso-back">
  <use href="#br-tp"/>
  <g clip-path="url(#br-tc)" fill="none"><path d="M-60 -47 Q0 -36 60 -47" stroke-width="1.25"/><path d="M-60 -53 Q0 -42 60 -53" stroke-width="0.8"/></g>
  <circle cy="-28" r="7"/>
</g>
<g id="br-legs">
  <path d="M-38 -22 V-6 Q-38 2 -24 2 Q-10 2 -10 -6 V-22 Z"/>
  <path d="M10 -22 V-6 Q10 2 24 2 Q38 2 38 -6 V-22 Z"/>
  <path d="M-29 1.6 V-4 M-19 1.6 V-4 M19 1.6 V-4 M29 1.6 V-4" fill="none" stroke-width="0.9"/>
</g>
<g id="br-legs-sit">
  <ellipse cx="-27" cy="-6" rx="17" ry="13"/><ellipse cx="27" cy="-6" rx="17" ry="13"/>
  <ellipse cx="-27" cy="-3" rx="8" ry="6" stroke-width="1"/><ellipse cx="27" cy="-3" rx="8" ry="6" stroke-width="1"/>
  <circle cx="-35" cy="-13" r="3" stroke-width="0.9"/><circle cx="-27" cy="-15.5" r="3" stroke-width="0.9"/><circle cx="-19" cy="-13" r="3" stroke-width="0.9"/>
  <circle cx="35" cy="-13" r="3" stroke-width="0.9"/><circle cx="27" cy="-15.5" r="3" stroke-width="0.9"/><circle cx="19" cy="-13" r="3" stroke-width="0.9"/>
</g>
<path id="br-arm" d="M-11 0 C-11 -13.75 11 -13.75 11 0 L10 30 C10 43.0 -10 43.0 -10 30 Z"/>

<!-- ================= CLOVER — rabbit (0.65 / 0.85 with ears) ================= -->
<g id="cl-head">
  <path d="M-20 -26 C-30 -58 -26 -80 -14 -80 C-2 -80 -2 -54 -6 -30 Z"/>
  <path d="M-15 -32 C-21 -54 -19 -70 -14 -72 C-9 -70 -8 -54 -10 -34 Z" stroke-width="1"/>
  <path d="M6 -29 C2 -48 6 -64 18 -68 C30 -72 42 -66 46 -54 C49 -44 44 -36 38 -38 C34 -40 34 -48 30 -54 C26 -58 22 -56 21 -48 L20 -27 Z"/>
  <path d="M10 -32 C8 -46 10 -58 16 -62 C18 -54 17 -42 16 -32 Z" stroke-width="1"/>
  <g transform="translate(33 -61)" stroke-width="0.9"><path d="M0 0 L3 8" fill="none"/><circle cx="-3.2" cy="-3.2" r="3.6"/><circle cx="3.2" cy="-3.2" r="3.6"/><circle cx="-3.2" cy="3.2" r="3.6"/><circle cx="3.2" cy="3.2" r="3.6"/><circle r="1.4"/></g>
  <circle r="34"/>
  <path d="M-3.5 5 Q0 3 3.5 5 Q0 10 -3.5 5 Z" fill="#000" stroke="none"/>
  <path d="M0 9 V11.5 M-5 13 Q-2.5 15.5 0 11.5 Q2.5 15.5 5 13" fill="none" stroke-width="1.2"/>
  <use href="#blush" x="-22" y="9"/><use href="#blush" x="22" y="9"/>
</g>
<g id="cl-head-back">
  <path d="M-20 -26 C-30 -58 -26 -80 -14 -80 C-2 -80 -2 -54 -6 -30 Z"/>
  <path d="M6 -29 C2 -48 6 -64 18 -68 C30 -72 42 -66 46 -54 C49 -44 44 -36 38 -38 C34 -40 34 -48 30 -54 C26 -58 22 -56 21 -48 L20 -27 Z"/>
  <g transform="translate(33 -61)" stroke-width="0.9"><circle cx="-3.2" cy="-3.2" r="3.6"/><circle cx="3.2" cy="-3.2" r="3.6"/><circle cx="-3.2" cy="3.2" r="3.6"/><circle cx="3.2" cy="3.2" r="3.6"/><circle r="1.4"/></g>
  <circle r="34"/>
</g>
<g id="cl-tail"><use href="#scallop" transform="scale(0.95)"/></g>
<path id="cl-tp" d="M-16 -62 C-32 -56 -36 -30 -32 -18 C-28 -8 -14 -6 0 -6 C14 -6 28 -8 32 -18 C36 -30 32 -56 16 -62 Z"/>
<clipPath id="cl-tc"><use href="#cl-tp"/></clipPath>
<g id="cl-torso"><use href="#cl-tp"/><ellipse cy="-32" rx="13" ry="15" stroke-width="1"/></g>
<g id="cl-feet"><ellipse cx="-14" cy="-4" rx="14" ry="6.5"/><ellipse cx="14" cy="-4" rx="14" ry="6.5"/></g>
<g id="cl-feet-sit"><ellipse cx="-16" cy="-6" rx="10" ry="13"/><ellipse cx="16" cy="-6" rx="10" ry="13"/><ellipse cx="-16" cy="-3" rx="5" ry="6" stroke-width="0.9"/><ellipse cx="16" cy="-3" rx="5" ry="6" stroke-width="0.9"/></g>
<path id="cl-arm" d="M-6 0 C-6 -7.5 6 -7.5 6 0 L5.5 20 C5.5 27.15 -5.5 27.15 -5.5 20 Z"/>

<!-- ================= MISO — cat (0.55) ================= -->
<g id="mi-head">
  <path d="M-33 -12 Q-36 -36 -28 -40 Q-20 -36 -10 -27 Z"/>
  <path d="M-28 -20 Q-30 -32 -27 -34 Q-21 -31 -17 -26 Z" stroke-width="1"/>
  <path d="M33 -12 Q36 -36 28 -40 Q20 -36 10 -27 Z"/>
  <path d="M28 -20 Q30 -32 27 -34 Q21 -31 17 -26 Z" stroke-width="1"/>
  <ellipse rx="36" ry="31"/>
  <path d="M-6 -29 L-5 -22 M0 -31 L0 -23 M6 -29 L5 -22 M-36 -6 L-29 -4 M-36 0 L-29 1 M36 -6 L29 -4 M36 0 L29 1" fill="none" stroke-width="1.4"/>
  <path d="M-3.2 7 L3.2 7 L0 10.5 Z" fill="#000" stroke="#000" stroke-width="1"/>
  <path d="M0 10.5 V12 M-5 13 Q-2.5 16 0 12 Q2.5 16 5 13" fill="none" stroke-width="1.2"/>
  <path d="M-16 10 L-46 6 M-16 13 L-47 14 M-16 16 L-44 21 M16 10 L46 6 M16 13 L47 14 M16 16 L44 21" fill="none" stroke-width="0.8"/>
  <use href="#blush" x="-22" y="4"/><use href="#blush" x="22" y="4"/>
</g>
<g id="mi-tail"><path d="M22 -16 C44 -14 54 -34 48 -52 C44 -62 32 -62 30 -54 C29 -49 34 -46 37 -50 C41 -40 38 -24 22 -6 Z"/></g>
<path id="mi-tp" d="M-16 -46 C-26 -40 -28 -20 -26 -10 C-24 -2 -12 -1 0 -1 C12 -1 24 -2 26 -10 C28 -20 26 -40 16 -46 Z"/>
<clipPath id="mi-tc"><use href="#mi-tp"/></clipPath>
<g id="mi-collar"><path d="M-17 -44 Q0 -37 17 -44 L17 -39 Q0 -32 -17 -39 Z" stroke-width="1.2"/><circle cy="-34" r="1.4" stroke-width="0.8"/><g transform="translate(0 -29)" stroke-width="0.9"><path d="M3.5 0 L8 -3.5 L8 3.5 Z"/><path d="M-5 0 Q0 -4.5 5 0 Q0 4.5 -5 0 Z"/></g></g>
<g id="mi-torso">
  <use href="#mi-tp"/>
  <ellipse cy="-20" rx="11" ry="12" stroke-width="1"/>
  <path d="M-17 -44 Q0 -37 17 -44 L17 -39 Q0 -32 -17 -39 Z" stroke-width="1.2"/>
  <circle cy="-34" r="1.4" stroke-width="0.8"/>
  <g transform="translate(0 -29)" stroke-width="0.9"><path d="M3.5 0 L8 -3.5 L8 3.5 Z"/><path d="M-5 0 Q0 -4.5 5 0 Q0 4.5 -5 0 Z"/></g>
</g>
<g id="mi-feet"><ellipse cx="-10" cy="-2" rx="9" ry="4.5"/><ellipse cx="10" cy="-2" rx="9" ry="4.5"/></g>
<g id="mi-feet-sit"><ellipse cx="-11" cy="-5" rx="7.5" ry="9"/><ellipse cx="11" cy="-5" rx="7.5" ry="9"/></g>
<path id="mi-arm" d="M-5 0 C-5 -6.25 5 -6.25 5 0 L4.6 15 C4.6 20.98 -4.6 20.98 -4.6 15 Z"/>

<!-- ================= JUNIPER — fox (0.75) ================= -->
<path id="ju-hp" d="M0 -32 C24 -32 38 -18 40 -2 C42 8 36 14 26 18 L7 30 Q0 34 -7 30 L-26 18 C-36 14 -42 8 -40 -2 C-38 -18 -24 -32 0 -32 Z"/>
<clipPath id="ju-hc"><use href="#ju-hp"/></clipPath>
<g id="ju-ears">
  <path d="M-37 -12 L-34 -58 Q-33 -60 -31 -58 L-11 -28 Z"/>
  <path d="M-34.7 -48 L-24.3 -48" fill="none" stroke-width="1.25"/>
  <path d="M-32 -20 L-31.5 -42 L-19 -27 Z" stroke-width="1"/>
  <path d="M37 -12 L34 -58 Q33 -60 31 -58 L11 -28 Z"/>
  <path d="M34.7 -48 L24.3 -48" fill="none" stroke-width="1.25"/>
  <path d="M32 -20 L31.5 -42 L19 -27 Z" stroke-width="1"/>
</g>
<g id="ju-head">
  <use href="#ju-ears"/>
  <use href="#ju-hp"/>
  <path clip-path="url(#ju-hc)" d="M-46 2 Q-24 0 -12 8 Q-6 12 0 10 Q6 12 12 8 Q24 0 46 2" fill="none" stroke-width="1.25"/>
  <ellipse cy="22" rx="4.2" ry="3.2" fill="#000" stroke="none"/>
  <path d="M-4 27.5 Q-2 29.5 0 27 Q2 29.5 4 27.5" fill="none" stroke-width="1"/>
  <use href="#blush" x="-25" y="12"/><use href="#blush" x="25" y="12"/>
</g>
<g id="ju-head-back">
  <path d="M-37 -12 L-34 -58 Q-33 -60 -31 -58 L-11 -28 Z"/><path d="M-34.7 -48 L-24.3 -48" fill="none" stroke-width="1.25"/>
  <path d="M37 -12 L34 -58 Q33 -60 31 -58 L11 -28 Z"/><path d="M34.7 -48 L24.3 -48" fill="none" stroke-width="1.25"/>
  <path d="M0 -32 C26 -32 42 -16 41 2 C40 12 34 18 30 22 L24 18 L20 25 L14 20 L8 27 L0 22 L-8 27 L-14 20 L-20 25 L-24 18 L-30 22 C-34 18 -40 12 -41 2 C-42 -16 -26 -32 0 -32 Z"/>
  <path d="M-10 -26 Q0 -30 10 -26" fill="none" stroke-width="1"/>
</g>
<g id="ju-brows"><path d="M-19 -15 L-11 -18 M11 -18 L19 -15" fill="none" stroke-width="1.4"/></g>
<path id="ju-tailp" d="M28 -12 C56 -12 70 -34 66 -60 C64 -80 58 -96 50 -104 C46 -94 42 -84 40 -72 C38 -58 34 -46 28 -36 Z"/>
<clipPath id="ju-tailc"><use href="#ju-tailp"/></clipPath>
<g id="ju-tail"><use href="#ju-tailp"/><path clip-path="url(#ju-tailc)" d="M36 -86 Q52 -80 72 -86" fill="none" stroke-width="1.25"/></g>
<path id="ju-tp" d="M-20 -78 C-34 -70 -38 -40 -34 -22 C-32 -10 -20 -6 0 -6 C20 -6 32 -10 34 -22 C38 -40 34 -70 20 -78 Z"/>
<clipPath id="ju-tc"><use href="#ju-tp"/></clipPath>
<g id="ju-scarf" stroke-width="1.2">
  <path d="M-21 -80 Q0 -70 21 -80 L21 -73 Q0 -63 -21 -73 Z"/>
  <path d="M-12 -70.5 L0 -54 L12 -70.5 Z"/>
  <circle cx="-4" cy="-66" r="1.3" fill="#000" stroke="none"/><circle cx="4" cy="-66" r="1.3" fill="#000" stroke="none"/><circle cy="-60" r="1.3" fill="#000" stroke="none"/>
  <path d="M-24 -73 L-31 -62 L-25 -64 Z"/><path d="M-20 -72 L-22 -60 L-16 -64 Z"/>
  <circle cx="-22" cy="-76" r="4.5"/>
</g>
<g id="ju-torso">
  <use href="#ju-tp"/>
  <path clip-path="url(#ju-tc)" d="M-26 -76 L-17 -50 L-11 -56 L-5 -44 L0 -50 L5 -44 L11 -56 L17 -50 L26 -76" fill="none" stroke-width="1.25"/>
  <use href="#ju-scarf"/>
</g>
<g id="ju-torso-back">
  <use href="#ju-tp"/>
  <g stroke-width="1.2"><path d="M-21 -80 Q0 -72 21 -80 L21 -73 Q0 -65 -21 -73 Z"/></g>
</g>
<g id="ju-knot-back" stroke-width="1.2"><path d="M14 -74 L8 -62 L14 -64 Z"/><path d="M18 -73 L19 -60 L23 -65 Z"/><circle cx="16" cy="-77" r="4.5"/></g>
<g id="ju-feet"><ellipse cx="-13" cy="-4" rx="11" ry="6"/><ellipse cx="13" cy="-4" rx="11" ry="6"/></g>
<g id="ju-feet-sit"><ellipse cx="-15" cy="-6" rx="9" ry="12"/><ellipse cx="15" cy="-6" rx="9" ry="12"/></g>
<path id="ju-arm" d="M-6 0 C-6 -7.5 6 -7.5 6 0 L5.5 20 C5.5 27.15 -5.5 27.15 -5.5 20 Z"/>

<!-- ================= PIP — puppy (0.6) ================= -->
<path id="pi-domep" d="M-36 -8 C-38 -34 -20 -46 0 -46 C20 -46 38 -34 36 -8 Z"/>
<clipPath id="pi-domec"><use href="#pi-domep"/></clipPath>
<g id="pi-hat">
  <use href="#pi-domep"/>
  <g clip-path="url(#pi-domec)" fill="none" stroke-width="1.25"><path d="M-40 -20 Q0 -26 40 -20"/><path d="M-40 -32 Q0 -38 40 -32"/></g>
  <path d="M-39 -12 Q0 -18 39 -12 L39 -1 Q0 -7 -39 -1 Z"/>
  <use href="#scallop" transform="translate(0 -52)"/>
</g>
<g id="pi-head">
  <path d="M-30 -20 C-46 -16 -50 10 -44 28 C-40 36 -32 32 -30 22 C-28 10 -26 -6 -24 -16 Z"/>
  <path d="M30 -20 C46 -16 50 10 44 28 C40 36 32 32 30 22 C28 10 26 -6 24 -16 Z"/>
  <circle r="34"/>
  <path d="M-23 8 C-23 0 -12 -2 -6 3 C-1 9 -3 18 -11 20 C-19 22 -23 15 -23 8 Z" stroke-width="1.25"/>
  <ellipse cy="24" rx="12" ry="8.5" stroke-width="1.25"/>
  <path d="M-5 19.5 Q0 16.5 5 19.5 Q4 24 0 25 Q-4 24 -5 19.5 Z" fill="#000" stroke="none"/>
  <path d="M0 25 V27.5 M-5 29 Q-2.5 31.5 0 27.5 Q2.5 31.5 5 29" fill="none" stroke-width="1.2"/>
  <use href="#blush" x="-23" y="21"/><use href="#blush" x="23" y="21"/>
  <use href="#pi-hat"/>
</g>
<g id="pi-tail"><path d="M-26 -20 C-38 -24 -42 -34 -38 -40 C-34 -36 -30 -30 -24 -28 Z"/></g>
<g id="pi-wag"><path d="M-46 -40 L-52 -45 M-45 -32 L-52 -32" fill="none" stroke-width="1.2"/></g>
<path id="pi-tp" d="M-18 -50 C-30 -44 -32 -20 -28 -10 C-26 -3 -14 -2 0 -2 C14 -2 26 -3 28 -10 C32 -20 30 -44 18 -50 Z"/>
<clipPath id="pi-tc"><use href="#pi-tp"/></clipPath>
<g id="pi-torso"><use href="#pi-tp"/><path d="M4 -16 C4 -24 16 -25 18 -17 C19 -9 8 -7 4 -16 Z" stroke-width="1.2"/></g>
<g id="pi-feet"><ellipse cx="-11" cy="-3" rx="10" ry="5.5"/><ellipse cx="11" cy="-3" rx="10" ry="5.5"/></g>
<g id="pi-feet-sit"><ellipse cx="-13" cy="-6" rx="8.5" ry="10.5"/><ellipse cx="13" cy="-6" rx="8.5" ry="10.5"/></g>
<path id="pi-arm" d="M-5.5 0 C-5.5 -6.88 5.5 -6.88 5.5 0 L5 15 C5 21.5 -5 21.5 -5 15 Z"/>

<!-- ================= TOFU — panda (0.85, widest) ================= -->
<g id="to-head">
  <circle cx="-36" cy="-34" r="13"/><circle cx="36" cy="-34" r="13"/>
  <ellipse rx="48" ry="42"/>
  <path d="M-10 -10 C-4 -4 -8 10 -18 14 C-28 18 -32 8 -28 0 C-24 -8 -16 -14 -10 -10 Z" stroke-width="1.25"/>
  <path d="M10 -10 C4 -4 8 10 18 14 C28 18 32 8 28 0 C24 -8 16 -14 10 -10 Z" stroke-width="1.25"/>
  <ellipse cy="18" rx="14" ry="10" stroke-width="1.25"/>
  <ellipse cy="14" rx="5.5" ry="4" fill="#000" stroke="none"/>
  <path d="M0 18 V21 M-5 23 Q-2.5 26 0 21 Q2.5 26 5 23" fill="none" stroke-width="1.2"/>
  <use href="#blush" x="-36" y="23"/><use href="#blush" x="36" y="23"/>
</g>
<path id="to-tp" d="M-34 -84 C-56 -74 -62 -42 -58 -24 C-54 -8 -34 -6 0 -6 C34 -6 54 -8 58 -24 C62 -42 56 -74 34 -84 Z"/>
<clipPath id="to-tc"><use href="#to-tp"/></clipPath>
<g id="to-pendant"><path d="M-22 -82 L0 -48 L22 -82" fill="none" stroke-width="1"/><use href="#crescent" transform="translate(-1 -40)" stroke-width="1.2"/></g>
<g id="to-torso">
  <use href="#to-tp"/>
  <path clip-path="url(#to-tc)" d="M-70 -60 Q0 -40 70 -60" fill="none" stroke-width="1.25"/>
  <use href="#to-pendant"/>
</g>
<g id="to-legs"><ellipse cx="-22" cy="-5" rx="15" ry="8.5"/><ellipse cx="22" cy="-5" rx="15" ry="8.5"/></g>
<g id="to-legs-sit"><ellipse cx="-30" cy="-2" rx="17" ry="14"/><ellipse cx="30" cy="-2" rx="17" ry="14"/><ellipse cx="-30" cy="1" rx="8" ry="6.5" stroke-width="1"/><ellipse cx="30" cy="1" rx="8" ry="6.5" stroke-width="1"/><circle cx="-38" cy="-8" r="3" stroke-width="0.9"/><circle cx="-30" cy="-10.5" r="3" stroke-width="0.9"/><circle cx="-22" cy="-8" r="3" stroke-width="0.9"/><circle cx="38" cy="-8" r="3" stroke-width="0.9"/><circle cx="30" cy="-10.5" r="3" stroke-width="0.9"/><circle cx="22" cy="-8" r="3" stroke-width="0.9"/></g>
<path id="to-arm" d="M-11 0 C-11 -13.75 11 -13.75 11 0 L10 26 C10 39.0 -10 39.0 -10 26 Z"/>

<!-- ================= PEBBLE — river otter (0.5) ================= -->
<g id="pb-head">
  <circle cx="-24" cy="-8" r="6.5"/><circle cx="24" cy="-8" r="6.5"/>
  <ellipse rx="26" ry="22"/>
  <ellipse cx="-7" cy="8" rx="8" ry="6" stroke-width="1.2"/><ellipse cx="7" cy="8" rx="8" ry="6" stroke-width="1.2"/>
  <ellipse cy="3" rx="5" ry="3.5" fill="#000" stroke="none"/>
  <path d="M-3 15.5 Q0 17.5 3 15.5" fill="none" stroke-width="1"/>
  <path d="M-14 7 L-30 4 M-14 11 L-30 13 M14 7 L30 4 M14 11 L30 13" fill="none" stroke-width="0.75"/>
  <ellipse cx="-19" cy="0" rx="4" ry="2.4" stroke-width="0.75"/><ellipse cx="19" cy="0" rx="4" ry="2.4" stroke-width="0.75"/>
</g>
<g id="pb-tail"><path d="M-22 -8 C-38 -6 -50 -16 -54 -32 C-46 -24 -36 -22 -22 -22 Z"/></g>
<path id="pb-tp" d="M-16 -56 C-26 -50 -28 -24 -24 -10 C-22 -3 -12 -1 0 -1 C12 -1 22 -3 24 -10 C28 -24 26 -50 16 -56 Z"/>
<clipPath id="pb-tc"><use href="#pb-tp"/></clipPath>
<g id="pb-pouch"><ellipse cx="14" cy="-17" rx="5" ry="3.5" stroke-width="1"/><path d="M7 -18 L21 -18 L21 -9 Q21 -4 14 -4 Q7 -4 7 -9 Z" stroke-width="1.2"/><path d="M7 -14 Q14 -11 21 -14" fill="none" stroke-width="1"/></g>
<g id="pb-torso">
  <use href="#pb-tp"/>
  <g clip-path="url(#pb-tc)" fill="none"><path d="M-40 -20 Q0 -14 40 -20" stroke-width="1.25"/><path d="M-40 -44 Q0 -39 40 -44" stroke-width="1"/><path d="M-40 -32 Q0 -27 40 -32" stroke-width="1"/></g>
  <use href="#pb-pouch"/>
</g>
<g id="pb-feet"><ellipse cx="-10" cy="-2" rx="9" ry="4.5"/><ellipse cx="10" cy="-2" rx="9" ry="4.5"/><path d="M-13 -2.5 V1.5 M-8 -2.5 V1.5 M8 -2.5 V1.5 M13 -2.5 V1.5" fill="none" stroke-width="0.75"/></g>
<g id="pb-feet-sit"><ellipse cx="-11" cy="-5" rx="7" ry="9"/><ellipse cx="11" cy="-5" rx="7" ry="9"/><path d="M-13 -1 V3 M-9 -1 V3 M9 -1 V3 M13 -1 V3" fill="none" stroke-width="0.75"/></g>
<g id="pb-arm"><path d="M-5 0 C-5 -6.25 5 -6.25 5 0 L4.6 13 C4.6 18.98 -4.6 18.98 -4.6 13 Z"/><path d="M-1.6 18.6 V15.5 M1.6 18.6 V15.5" fill="none" stroke-width="0.75"/></g>

<!-- ================= THIMBLE — mouse (0.3) ================= -->
<g id="th-pencil" stroke-width="0.9"><path d="M-15 -2.6 L9 -2.6 L15 0 L9 2.6 L-15 2.6 Z"/><path d="M-15 -2.6 L-19 -2.6 L-19 2.6 L-15 2.6 Z"/><path d="M9 -2.6 V2.6" fill="none"/><path d="M13 -0.9 L15 0 L13 0.9 Z" fill="#000"/></g>
<g id="th-head">
  <use href="#th-pencil" transform="translate(-21 -16) rotate(-32)"/>
  <circle cx="-19" cy="-14" r="15"/><circle cx="-19" cy="-14" r="9" stroke-width="0.9"/>
  <circle cx="19" cy="-14" r="15"/><circle cx="19" cy="-14" r="9" stroke-width="0.9"/>
  <path d="M0 -18 C14 -18 20 -8 19 0 C18 10 8 16 0 19 C-8 16 -18 10 -19 0 C-20 -8 -14 -18 0 -18 Z"/>
  <circle cy="17" r="2.6" fill="#000" stroke="none"/>
  <path d="M-5 13 L-17 11 M-5 15.5 L-16 17.5 M5 13 L17 11 M5 15.5 L16 17.5" fill="none" stroke-width="0.6"/>
  <ellipse cx="-11.5" cy="7" rx="3.2" ry="1.9" stroke-width="0.6"/><ellipse cx="11.5" cy="7" rx="3.2" ry="1.9" stroke-width="0.6"/>
</g>
<g id="th-tail" stroke-width="1"><path d="M12 -6 C30 -4 36 -20 30 -30 C26 -36 32 -44 40 -40" fill="none" stroke-width="1.2"/><path d="M29 -33 L22 -37 L23 -28 Z"/><path d="M29 -33 L35 -39 L36 -30 Z"/><circle cx="29" cy="-33" r="2"/></g>
<path id="th-tp" d="M-9 -22 C-16 -18 -17 -6 -14 -2 C-12 0 -6 0 0 0 C6 0 12 0 14 -2 C17 -6 16 -18 9 -22 Z"/>
<clipPath id="th-tc"><use href="#th-tp"/></clipPath>
<g id="th-torso"><use href="#th-tp"/></g>
<g id="th-feet"><ellipse cx="-6" cy="-1" rx="6" ry="3"/><ellipse cx="6" cy="-1" rx="6" ry="3"/></g>
<g id="th-feet-sit"><ellipse cx="-7" cy="-3" rx="4.5" ry="5.5"/><ellipse cx="7" cy="-3" rx="4.5" ry="5.5"/></g>
<path id="th-arm" d="M-3 0 C-3 -3.75 3 -3.75 3 0 L2.8 8 C2.8 11.64 -2.8 11.64 -2.8 8 Z"/>
<g id="br-sleeve"><use href="#br-arm"/><path d="M-10 29 H10" fill="none" stroke-width="1.32"/></g>
<g id="cl-sleeve"><use href="#cl-arm"/><path d="M-5.5 19 H5.5" fill="none" stroke-width="0.72"/></g>
<g id="mi-sleeve"><use href="#mi-arm"/><path d="M-4.6 14 H4.6" fill="none" stroke-width="0.60"/></g>
<g id="ju-sleeve"><use href="#ju-arm"/><path d="M-5.5 19 H5.5" fill="none" stroke-width="0.72"/></g>
<g id="pi-sleeve"><use href="#pi-arm"/><path d="M-5 14 H5" fill="none" stroke-width="0.66"/></g>
<g id="to-sleeve"><use href="#to-arm"/><path d="M-10 25 H10" fill="none" stroke-width="1.32"/></g>
<g id="pb-sleeve"><use href="#pb-arm"/><path d="M-4.6 12 H4.6" fill="none" stroke-width="0.60"/></g>
<g id="th-sleeve"><use href="#th-arm"/><path d="M-2.8 7 H2.8" fill="none" stroke-width="0.60"/></g>
</defs>

<defs><clipPath id="live"><rect x="45" y="36" width="531" height="720" rx="14"/></clipPath></defs>
<rect width="612" height="792" fill="#fff"/>
<g fill="#fff" stroke="#000" stroke-linejoin="round" stroke-linecap="round" stroke-width="1.25">
<g clip-path="url(#live)">
<path d="M300 250 V530 H326 V250 Z" stroke-width="1.4"/><path d="M310 340 q-3 20 0 40 M316 430 q3 20 0 40" fill="none" stroke-width="0.8"/><path d="M470 250 V530 H492 V250 Z" stroke-width="1.4"/><path d="M479 340 q-3 20 0 40 M483 430 q3 20 0 40" fill="none" stroke-width="0.8"/><path d="M560 250 V530 H590 V250 Z" stroke-width="1.4"/><path d="M572 340 q-3 20 0 40 M578 430 q3 20 0 40" fill="none" stroke-width="0.8"/><path d="M30 512 C200 500 400 510 640 498 L640 800 L30 800 Z" stroke-width="1.5"/><path d="M452 522 Q456 462.0 452 402" fill="none" stroke-width="1.4000000000000001"/><path d="M452 522 Q434 506 430 488 Q446 498 452 522 Z" stroke-width="1.1"/><path d="M452 514 Q470 500 474 482 Q458 492 452 514 Z" stroke-width="1.1"/><path transform="translate(457 480.0) scale(1.00 1.00)" d="M0 -5 Q12 -7 14 4 Q10 9 6 6 Q3 10 0 6 Z" stroke-width="1.10"/><path transform="translate(447 468.0) scale(-0.91 0.91)" d="M0 -5 Q12 -7 14 4 Q10 9 6 6 Q3 10 0 6 Z" stroke-width="1.21"/><path transform="translate(457 456.0) scale(0.82 0.82)" d="M0 -5 Q12 -7 14 4 Q10 9 6 6 Q3 10 0 6 Z" stroke-width="1.34"/><path transform="translate(447 444.0) scale(-0.73 0.73)" d="M0 -5 Q12 -7 14 4 Q10 9 6 6 Q3 10 0 6 Z" stroke-width="1.51"/><path transform="translate(457 432.0) scale(0.64 0.64)" d="M0 -5 Q12 -7 14 4 Q10 9 6 6 Q3 10 0 6 Z" stroke-width="1.72"/><path transform="translate(447 420.0) scale(-0.55 0.55)" d="M0 -5 Q12 -7 14 4 Q10 9 6 6 Q3 10 0 6 Z" stroke-width="2.00"/><circle cx="452" cy="399" r="3" stroke-width="1.1"/><path d="M566 520 Q570 445.0 566 370" fill="none" stroke-width="1.4000000000000001"/><path d="M566 520 Q548 504 544 486 Q560 496 566 520 Z" stroke-width="1.1"/><path d="M566 512 Q584 498 588 480 Q572 490 566 512 Z" stroke-width="1.1"/><path transform="translate(571 467.5) scale(1.00 1.00)" d="M0 -5 Q12 -7 14 4 Q10 9 6 6 Q3 10 0 6 Z" stroke-width="1.10"/><path transform="translate(561 452.5) scale(-0.91 0.91)" d="M0 -5 Q12 -7 14 4 Q10 9 6 6 Q3 10 0 6 Z" stroke-width="1.21"/><path transform="translate(571 437.5) scale(0.82 0.82)" d="M0 -5 Q12 -7 14 4 Q10 9 6 6 Q3 10 0 6 Z" stroke-width="1.34"/><path transform="translate(561 422.5) scale(-0.73 0.73)" d="M0 -5 Q12 -7 14 4 Q10 9 6 6 Q3 10 0 6 Z" stroke-width="1.51"/><path transform="translate(571 407.5) scale(0.64 0.64)" d="M0 -5 Q12 -7 14 4 Q10 9 6 6 Q3 10 0 6 Z" stroke-width="1.72"/><path transform="translate(561 392.5) scale(-0.55 0.55)" d="M0 -5 Q12 -7 14 4 Q10 9 6 6 Q3 10 0 6 Z" stroke-width="2.00"/><circle cx="566" cy="367" r="3" stroke-width="1.1"/><path d="M236 520 Q240 468.0 236 416" fill="none" stroke-width="1.4000000000000001"/><path d="M236 520 Q218 504 214 486 Q230 496 236 520 Z" stroke-width="1.1"/><path d="M236 512 Q254 498 258 480 Q242 490 236 512 Z" stroke-width="1.1"/><path transform="translate(241 483.6) scale(1.00 1.00)" d="M0 -5 Q12 -7 14 4 Q10 9 6 6 Q3 10 0 6 Z" stroke-width="1.10"/><path transform="translate(231 473.2) scale(-0.91 0.91)" d="M0 -5 Q12 -7 14 4 Q10 9 6 6 Q3 10 0 6 Z" stroke-width="1.21"/><path transform="translate(241 462.8) scale(0.82 0.82)" d="M0 -5 Q12 -7 14 4 Q10 9 6 6 Q3 10 0 6 Z" stroke-width="1.34"/><path transform="translate(231 452.4) scale(-0.73 0.73)" d="M0 -5 Q12 -7 14 4 Q10 9 6 6 Q3 10 0 6 Z" stroke-width="1.51"/><path transform="translate(241 442.0) scale(0.64 0.64)" d="M0 -5 Q12 -7 14 4 Q10 9 6 6 Q3 10 0 6 Z" stroke-width="1.72"/><path transform="translate(231 431.6) scale(-0.55 0.55)" d="M0 -5 Q12 -7 14 4 Q10 9 6 6 Q3 10 0 6 Z" stroke-width="2.00"/><circle cx="236" cy="413" r="3" stroke-width="1.1"/><path d="M480 528 Q457.2 495.0 426.1 466.7" fill="none" stroke-width="1.3"/><ellipse cx="466.6" cy="523.6" rx="9.5" ry="4.2" transform="rotate(-181.5 466.6 523.6)" stroke-width="1.1"/><ellipse cx="480.0" cy="513.7" rx="9.5" ry="4.2" transform="rotate(-71.5 480.0 513.7)" stroke-width="1.1"/><ellipse cx="460.3" cy="514.3" rx="8.7" ry="3.9" transform="rotate(-183.5 460.3 514.3)" stroke-width="1.1"/><ellipse cx="472.3" cy="504.7" rx="8.7" ry="3.9" transform="rotate(-73.5 472.3 504.7)" stroke-width="1.1"/><ellipse cx="453.7" cy="505.1" rx="7.9" ry="3.5" transform="rotate(-185.4 453.7 505.1)" stroke-width="1.1"/><ellipse cx="464.3" cy="496.1" rx="7.9" ry="3.5" transform="rotate(-75.4 464.3 496.1)" stroke-width="1.1"/><ellipse cx="446.6" cy="496.0" rx="7.1" ry="3.2" transform="rotate(-187.3 446.6 496.0)" stroke-width="1.1"/><ellipse cx="455.9" cy="487.6" rx="7.1" ry="3.2" transform="rotate(-77.3 455.9 487.6)" stroke-width="1.1"/><ellipse cx="439.3" cy="487.1" rx="6.3" ry="2.8" transform="rotate(-189.1 439.3 487.1)" stroke-width="1.1"/><ellipse cx="447.2" cy="479.4" rx="6.3" ry="2.8" transform="rotate(-79.1 447.2 479.4)" stroke-width="1.1"/><ellipse cx="431.5" cy="478.4" rx="5.5" ry="2.4" transform="rotate(-190.9 431.5 478.4)" stroke-width="1.1"/><ellipse cx="438.2" cy="471.4" rx="5.5" ry="2.4" transform="rotate(-80.9 438.2 471.4)" stroke-width="1.1"/><ellipse cx="426.1" cy="466.7" rx="3.8" ry="2.8" stroke-width="1.1"/><path d="M500 530 Q513.1 485.8 536.7 443.8" fill="none" stroke-width="1.3"/><ellipse cx="496.0" cy="514.8" rx="9.5" ry="4.2" transform="rotate(-126.6 496.0 514.8)" stroke-width="1.1"/><ellipse cx="511.9" cy="520.0" rx="9.5" ry="4.2" transform="rotate(-16.6 511.9 520.0)" stroke-width="1.1"/><ellipse cx="501.2" cy="502.2" rx="8.7" ry="3.9" transform="rotate(-124.7 501.2 502.2)" stroke-width="1.1"/><ellipse cx="515.5" cy="507.6" rx="8.7" ry="3.9" transform="rotate(-14.7 515.5 507.6)" stroke-width="1.1"/><ellipse cx="506.7" cy="489.9" rx="7.9" ry="3.5" transform="rotate(-122.9 506.7 489.9)" stroke-width="1.1"/><ellipse cx="519.6" cy="495.1" rx="7.9" ry="3.5" transform="rotate(-12.9 519.6 495.1)" stroke-width="1.1"/><ellipse cx="512.7" cy="477.6" rx="7.1" ry="3.2" transform="rotate(-121.0 512.7 477.6)" stroke-width="1.1"/><ellipse cx="524.1" cy="482.7" rx="7.1" ry="3.2" transform="rotate(-11.0 524.1 482.7)" stroke-width="1.1"/><ellipse cx="519.1" cy="465.5" rx="6.3" ry="2.8" transform="rotate(-119.2 519.1 465.5)" stroke-width="1.1"/><ellipse cx="529.1" cy="470.3" rx="6.3" ry="2.8" transform="rotate(-9.2 529.1 470.3)" stroke-width="1.1"/><ellipse cx="525.9" cy="453.6" rx="5.5" ry="2.4" transform="rotate(-117.4 525.9 453.6)" stroke-width="1.1"/><ellipse cx="534.5" cy="458.0" rx="5.5" ry="2.4" transform="rotate(-7.4 534.5 458.0)" stroke-width="1.1"/><ellipse cx="536.7" cy="443.8" rx="3.8" ry="2.8" stroke-width="1.1"/><path d="M330 528 Q315.8 495.9 294.8 466.3" fill="none" stroke-width="1.3"/><ellipse cx="318.3" cy="520.7" rx="8.5" ry="3.8" transform="rotate(-170.9 318.3 520.7)" stroke-width="1.1"/><ellipse cx="331.8" cy="514.1" rx="8.5" ry="3.8" transform="rotate(-60.9 331.8 514.1)" stroke-width="1.1"/><ellipse cx="313.8" cy="510.0" rx="7.7" ry="3.4" transform="rotate(-172.8 313.8 510.0)" stroke-width="1.1"/><ellipse cx="325.7" cy="503.7" rx="7.7" ry="3.4" transform="rotate(-62.8 325.7 503.7)" stroke-width="1.1"/><ellipse cx="308.9" cy="499.5" rx="6.8" ry="3.0" transform="rotate(-174.7 308.9 499.5)" stroke-width="1.1"/><ellipse cx="319.3" cy="493.6" rx="6.8" ry="3.0" transform="rotate(-64.7 319.3 493.6)" stroke-width="1.1"/><ellipse cx="303.6" cy="489.1" rx="6.0" ry="2.7" transform="rotate(-176.6 303.6 489.1)" stroke-width="1.1"/><ellipse cx="312.5" cy="483.6" rx="6.0" ry="2.7" transform="rotate(-66.6 312.5 483.6)" stroke-width="1.1"/><ellipse cx="297.8" cy="478.7" rx="5.1" ry="2.3" transform="rotate(-178.5 297.8 478.7)" stroke-width="1.1"/><ellipse cx="305.3" cy="473.8" rx="5.1" ry="2.3" transform="rotate(-68.5 305.3 473.8)" stroke-width="1.1"/><ellipse cx="294.8" cy="466.3" rx="3.5" ry="2.5" stroke-width="1.1"/><path d="M348 530 Q362.1 495.7 384.2 463.9" fill="none" stroke-width="1.3"/><ellipse cx="346.1" cy="515.5" rx="8.5" ry="3.8" transform="rotate(-120.5 346.1 515.5)" stroke-width="1.1"/><ellipse cx="359.7" cy="521.7" rx="8.5" ry="3.8" transform="rotate(-10.5 359.7 521.7)" stroke-width="1.1"/><ellipse cx="352.3" cy="504.4" rx="7.7" ry="3.4" transform="rotate(-118.4 352.3 504.4)" stroke-width="1.1"/><ellipse cx="364.3" cy="510.4" rx="7.7" ry="3.4" transform="rotate(-8.4 364.3 510.4)" stroke-width="1.1"/><ellipse cx="358.8" cy="493.4" rx="6.8" ry="3.0" transform="rotate(-116.3 358.8 493.4)" stroke-width="1.1"/><ellipse cx="369.4" cy="499.2" rx="6.8" ry="3.0" transform="rotate(-6.3 369.4 499.2)" stroke-width="1.1"/><ellipse cx="365.8" cy="482.7" rx="6.0" ry="2.7" transform="rotate(-114.2 365.8 482.7)" stroke-width="1.1"/><ellipse cx="374.9" cy="488.1" rx="6.0" ry="2.7" transform="rotate(-4.2 374.9 488.1)" stroke-width="1.1"/><ellipse cx="373.3" cy="472.2" rx="5.1" ry="2.3" transform="rotate(-112.2 373.3 472.2)" stroke-width="1.1"/><ellipse cx="380.8" cy="477.0" rx="5.1" ry="2.3" transform="rotate(-2.2 380.8 477.0)" stroke-width="1.1"/><ellipse cx="384.2" cy="463.9" rx="3.5" ry="2.5" stroke-width="1.1"/><path d="M590 528 Q575.7 490.6 555.8 455.0" fill="none" stroke-width="1.3"/><ellipse cx="578.1" cy="520.5" rx="9.5" ry="4.2" transform="rotate(-167.1 578.1 520.5)" stroke-width="1.1"/><ellipse cx="593.6" cy="514.2" rx="9.5" ry="4.2" transform="rotate(-57.1 593.6 514.2)" stroke-width="1.1"/><ellipse cx="574.3" cy="509.8" rx="8.7" ry="3.9" transform="rotate(-168.3 574.3 509.8)" stroke-width="1.1"/><ellipse cx="588.4" cy="503.7" rx="8.7" ry="3.9" transform="rotate(-58.3 588.4 503.7)" stroke-width="1.1"/><ellipse cx="570.4" cy="499.1" rx="7.9" ry="3.5" transform="rotate(-169.5 570.4 499.1)" stroke-width="1.1"/><ellipse cx="583.1" cy="493.4" rx="7.9" ry="3.5" transform="rotate(-59.5 583.1 493.4)" stroke-width="1.1"/><ellipse cx="566.2" cy="488.5" rx="7.1" ry="3.2" transform="rotate(-170.7 566.2 488.5)" stroke-width="1.1"/><ellipse cx="577.5" cy="483.1" rx="7.1" ry="3.2" transform="rotate(-60.7 577.5 483.1)" stroke-width="1.1"/><ellipse cx="561.8" cy="478.0" rx="6.3" ry="2.8" transform="rotate(-171.9 561.8 478.0)" stroke-width="1.1"/><ellipse cx="571.7" cy="473.0" rx="6.3" ry="2.8" transform="rotate(-61.9 571.7 473.0)" stroke-width="1.1"/><ellipse cx="557.1" cy="467.5" rx="5.5" ry="2.4" transform="rotate(-173.1 557.1 467.5)" stroke-width="1.1"/><ellipse cx="565.6" cy="462.9" rx="5.5" ry="2.4" transform="rotate(-63.1 565.6 462.9)" stroke-width="1.1"/><ellipse cx="555.8" cy="455.0" rx="3.8" ry="2.8" stroke-width="1.1"/><path d="M58 250 C66 330 70 420 62 520 C56 548 36 560 30 566 L30 580 C70 576 92 562 108 552 C122 566 150 578 196 580 C176 562 168 544 168 520 C162 430 166 330 176 250 Z" stroke-width="2.2"/><path d="M86 290 Q80 340 88 390 M150 300 Q156 340 150 380 M90 450 Q84 480 92 506 M150 470 Q156 500 148 526" fill="none" stroke-width="1.1"/><path d="M168 438 C190 430 214 424 238 426 L238 436 C216 436 194 442 170 452 Z" stroke-width="1.6"/><g transform="translate(236 432) rotate(70) scale(1.0)" stroke-width="1.10"><path d="M0 0 C-4 -3 -10 -3 -8 -8 C-13 -10 -11 -16 -6 -15 C-9 -21 -4 -26 0 -22 C4 -26 9 -21 6 -15 C11 -16 13 -10 8 -8 C10 -3 4 -3 0 0 Z"/><path d="M0 3 V-19" fill="none" stroke-width="0.80"/></g><use href="#dot" transform="translate(210 420) rotate(0) scale(1.0 1.0)" stroke-width="1.3"/><ellipse cx="116" cy="500" rx="26" ry="34" stroke-width="2"/><ellipse cx="116" cy="502" rx="19" ry="27" stroke-width="1.2"/><path d="M100 498 C86 480 92 454 112 460 C100 470 104 484 112 492 Z" stroke-width="1.4"/><path d="M110 480 L106 468 L116 474 Z M126 476 L130 464 L134 478 Z" stroke-width="1.3"/><circle cx="122" cy="490" r="14" stroke-width="1.6"/><circle cx="117" cy="488" r="2" fill="#000" stroke="none"/><circle cx="128" cy="488" r="2" fill="#000" stroke="none"/><ellipse cx="122" cy="495" rx="2.2" ry="1.6" fill="#000" stroke="none"/><ellipse cx="112" cy="512" rx="6" ry="4.5" stroke-width="1.3"/><ellipse cx="130" cy="512" rx="6" ry="4.5" stroke-width="1.3"/><path d="M150 330 C210 290 300 270 400 262 L404 278 C310 288 222 310 168 352 Z" stroke-width="1.8"/><path d="M100 330 C80 300 60 280 30 270 L30 286 C56 296 74 314 86 338 Z" stroke-width="1.8"/><path d="M85.0 -14.0 Q116.5 -22.6 135.0 -2.3 Q164.5 5.6 165.9 28.2 Q181.7 47.0 165.9 65.8 Q164.5 88.4 135.0 96.3 Q116.5 116.6 85.0 108.0 Q53.5 116.6 35.0 96.3 Q5.5 88.4 4.1 65.8 Q-11.7 47.0 4.1 28.2 Q5.5 5.6 35.0 -2.3 Q53.5 -22.6 85.0 -14.0 Z" stroke-width="1.8"/><path d="M59.407674575146885 56.77003569930042 Q73.40767457514688 42.77003569930042 89.40767457514688 54.77003569930042 M97.40767457514688 28.770035699300422 Q109.40767457514688 20.770035699300422 119.40767457514688 32.77003569930042" fill="none" stroke-width="0.9"/><path d="M217.0 -27.0 Q255.5 -31.3 278.2 -10.0 Q305.4 6.5 303.6 31.0 Q305.4 55.5 278.2 72.0 Q255.5 93.3 217.0 89.0 Q178.5 93.3 155.8 72.0 Q128.6 55.5 130.4 31.0 Q128.6 6.5 155.8 -10.0 Q178.5 -31.3 217.0 -27.0 Z" stroke-width="1.8"/><path d="M190.68939465718194 40.841115927786724 Q204.68939465718194 26.841115927786724 220.68939465718194 38.841115927786724 M228.68939465718194 12.841115927786724 Q240.68939465718194 4.841115927786724 250.68939465718194 16.841115927786724" fill="none" stroke-width="0.9"/><path d="M357.0 2.6 Q384.9 -2.0 400.7 17.9 Q422.7 31.9 418.8 55.0 Q422.7 78.1 400.7 92.1 Q384.9 112.0 357.0 107.4 Q329.1 112.0 313.3 92.1 Q291.3 78.1 295.2 55.0 Q291.3 31.9 313.3 17.9 Q329.1 -2.0 357.0 2.6 Z" stroke-width="1.8"/><path d="M330.55488033802465 65.22521376901744 Q344.55488033802465 51.22521376901744 360.55488033802465 63.22521376901744 M368.55488033802465 37.22521376901744 Q380.55488033802465 29.225213769017437 390.55488033802465 41.22521376901744" fill="none" stroke-width="0.9"/><path d="M475.0 -38.2 Q502.2 -45.2 517.7 -24.8 Q542.4 -14.5 540.5 9.1 Q551.2 30.6 532.6 47.6 Q525.5 70.8 497.7 72.7 Q475.0 87.6 452.3 72.7 Q424.5 70.8 417.4 47.6 Q398.8 30.6 409.5 9.1 Q407.6 -14.5 432.3 -24.8 Q447.8 -45.2 475.0 -38.2 Z" stroke-width="1.8"/><path d="M448.75334834996966 28.855283260869633 Q462.75334834996966 14.855283260869633 478.75334834996966 26.855283260869633 M486.75334834996966 0.8552832608696335 Q498.75334834996966 -7.1447167391303665 508.75334834996966 4.8552832608696335" fill="none" stroke-width="0.9"/><path d="M590.0 15.1 Q627.0 12.2 649.4 28.9 Q673.6 42.7 674.0 62.0 Q673.6 81.3 649.4 95.1 Q627.0 111.8 590.0 108.9 Q553.0 111.8 530.6 95.1 Q506.4 81.3 506.0 62.0 Q506.4 42.7 530.6 28.9 Q553.0 12.2 590.0 15.1 Z" stroke-width="1.8"/><path d="M564.2972241044888 71.65767041063945 Q578.2972241044888 57.657670410639454 594.2972241044888 69.65767041063945 M602.2972241044888 43.657670410639454 Q614.2972241044888 35.657670410639454 624.2972241044888 47.657670410639454" fill="none" stroke-width="0.9"/><path d="M4.0 99.0 Q31.8 95.5 48.1 111.9 Q68.2 124.2 66.3 143.0 Q68.2 161.8 48.1 174.1 Q31.8 190.5 4.0 187.0 Q-23.8 190.5 -40.1 174.1 Q-60.2 161.8 -58.3 143.0 Q-60.2 124.2 -40.1 111.9 Q-23.8 95.5 4.0 99.0 Z" stroke-width="1.8"/><path d="M-21.89423359044826 153.28867057305126 Q-7.894233590448261 139.28867057305126 8.10576640955174 151.28867057305126 M16.10576640955174 125.28867057305126 Q28.10576640955174 117.28867057305126 38.10576640955174 129.28867057305126" fill="none" stroke-width="0.9"/><path d="M137.0 62.3 Q173.9 55.7 195.8 76.3 Q225.9 88.5 227.0 111.6 Q237.0 133.5 216.2 151.9 Q204.5 174.5 168.3 178.1 Q137.0 193.6 105.7 178.1 Q69.5 174.5 57.8 151.9 Q37.0 133.5 47.0 111.6 Q48.1 88.5 78.2 76.3 Q100.1 55.7 137.0 62.3 Z" stroke-width="1.8"/><path d="M111.2160808297852 132.03347273829252 Q125.2160808297852 118.0334727382925 141.2160808297852 130.03347273829252 M149.2160808297852 104.0334727382925 Q161.2160808297852 96.0334727382925 171.2160808297852 108.0334727382925" fill="none" stroke-width="0.9"/><path d="M282.0 76.7 Q320.9 72.8 344.1 92.9 Q370.8 108.8 369.8 132.0 Q370.8 155.2 344.1 171.1 Q320.9 191.2 282.0 187.3 Q243.1 191.2 219.9 171.1 Q193.2 155.2 194.2 132.0 Q193.2 108.8 219.9 92.9 Q243.1 72.8 282.0 76.7 Z" stroke-width="1.8"/><path d="M255.80066018033796 141.5689011447002 Q269.80066018033796 127.56890114470019 285.80066018033796 139.5689011447002 M293.80066018033796 113.56890114470019 Q305.80066018033796 105.56890114470019 315.80066018033796 117.56890114470019" fill="none" stroke-width="0.9"/><path d="M439.0 72.9 Q475.7 66.3 497.4 87.0 Q527.5 99.2 528.5 122.6 Q538.6 144.6 517.7 163.0 Q506.2 185.9 470.1 189.5 Q439.0 205.1 407.9 189.5 Q371.8 185.9 360.3 163.0 Q339.4 144.6 349.5 122.6 Q350.5 99.2 380.6 87.0 Q402.3 66.3 439.0 72.9 Z" stroke-width="1.8"/><path d="M413.402944047872 143.33797435099342 Q427.402944047872 129.33797435099342 443.402944047872 141.33797435099342 M451.402944047872 115.33797435099342 Q463.402944047872 107.33797435099342 473.402944047872 119.33797435099342" fill="none" stroke-width="0.9"/><path d="M539.0 89.3 Q574.9 84.4 596.7 100.7 Q624.2 111.3 627.5 129.5 Q634.7 147.2 616.8 162.4 Q603.9 180.0 569.7 183.8 Q539.0 196.5 508.3 183.8 Q474.1 180.0 461.2 162.4 Q443.3 147.2 450.5 129.5 Q453.8 111.3 481.3 100.7 Q503.1 84.4 539.0 89.3 Z" stroke-width="1.8"/><path d="M512.9490891687003 147.61738792543687 Q526.9490891687003 133.61738792543687 542.9490891687003 145.61738792543687 M550.9490891687003 119.61738792543687 Q562.9490891687003 111.61738792543687 572.9490891687003 123.61738792543687" fill="none" stroke-width="0.9"/><path d="M71.0 182.8 Q94.8 175.7 108.4 195.9 Q131.1 205.5 128.2 229.2 Q139.2 250.6 121.3 267.1 Q115.7 290.5 90.9 291.8 Q71.0 306.4 51.1 291.8 Q26.3 290.5 20.7 267.1 Q2.8 250.6 13.8 229.2 Q10.9 205.5 33.6 195.9 Q47.2 175.7 71.0 182.8 Z" stroke-width="1.8"/><path d="M45.259800433856356 248.88707992741433 Q59.259800433856356 234.88707992741433 75.25980043385636 246.88707992741433 M83.25980043385636 220.88707992741433 Q95.25980043385636 212.88707992741433 105.25980043385636 224.88707992741433" fill="none" stroke-width="0.9"/><path d="M201.0 171.5 Q231.8 166.6 249.4 188.0 Q273.3 203.3 269.4 228.0 Q273.3 252.7 249.4 268.0 Q231.8 289.4 201.0 284.5 Q170.2 289.4 152.6 268.0 Q128.7 252.7 132.6 228.0 Q128.7 203.3 152.6 188.0 Q170.2 166.6 201.0 171.5 Z" stroke-width="1.8"/><path d="M174.9049878242474 237.94983800439914 Q188.9049878242474 223.94983800439914 204.9049878242474 235.94983800439914 M212.9049878242474 209.94983800439914 Q224.9049878242474 201.94983800439914 234.9049878242474 213.94983800439914" fill="none" stroke-width="0.9"/><path d="M359.0 184.4 Q386.0 179.0 401.4 202.5 Q424.5 218.1 418.9 246.0 Q424.5 273.9 401.4 289.5 Q386.0 313.0 359.0 307.6 Q332.0 313.0 316.6 289.5 Q293.5 273.9 299.1 246.0 Q293.5 218.1 316.6 202.5 Q332.0 179.0 359.0 184.4 Z" stroke-width="1.8"/><path d="M333.173608994422 255.73073575594546 Q347.173608994422 241.73073575594546 363.173608994422 253.73073575594546 M371.173608994422 227.73073575594546 Q383.173608994422 219.73073575594546 393.173608994422 231.73073575594546" fill="none" stroke-width="0.9"/><path d="M520.0 178.1 Q549.2 171.8 566.1 190.7 Q591.2 201.1 590.7 222.6 Q600.3 242.6 582.1 258.9 Q573.8 280.1 544.5 282.6 Q520.0 296.6 495.5 282.6 Q466.2 280.1 457.9 258.9 Q439.7 242.6 449.3 222.6 Q448.8 201.1 473.9 190.7 Q490.8 171.8 520.0 178.1 Z" stroke-width="1.8"/><path d="M493.76570097350316 242.01403382164736 Q507.76570097350316 228.01403382164736 523.7657009735032 240.01403382164736 M531.7657009735032 214.01403382164736 Q543.7657009735032 206.01403382164736 553.7657009735032 218.01403382164736" fill="none" stroke-width="0.9"/><path d="M614.0 187.2 Q640.1 183.5 655.2 200.3 Q674.9 212.6 672.3 232.0 Q674.9 251.4 655.2 263.7 Q640.1 280.5 614.0 276.8 Q587.9 280.5 572.8 263.7 Q553.1 251.4 555.7 232.0 Q553.1 212.6 572.8 200.3 Q587.9 183.5 614.0 187.2 Z" stroke-width="1.8"/><path d="M588.1121169370418 242.19852721359248 Q602.1121169370418 228.19852721359248 618.1121169370418 240.19852721359248 M626.1121169370418 214.19852721359248 Q638.1121169370418 206.19852721359248 648.1121169370418 218.19852721359248" fill="none" stroke-width="0.9"/><path d="M155.0 264.6 Q180.3 258.8 194.9 275.9 Q217.0 285.1 216.1 304.6 Q224.9 322.6 208.7 337.2 Q201.7 356.4 176.2 358.5 Q155.0 371.1 133.8 358.5 Q108.3 356.4 101.3 337.2 Q85.1 322.6 93.9 304.6 Q93.0 285.1 115.1 275.9 Q129.7 258.8 155.0 264.6 Z" stroke-width="1.8"/><path d="M129.44337336739835 322.7230453305141 Q143.44337336739835 308.7230453305141 159.44337336739835 320.7230453305141 M167.44337336739835 294.7230453305141 Q179.44337336739835 286.7230453305141 189.44337336739835 298.7230453305141" fill="none" stroke-width="0.9"/><path d="M283.0 242.0 Q317.0 237.3 336.6 259.0 Q362.1 275.0 358.8 300.0 Q362.1 325.0 336.6 341.0 Q317.0 362.7 283.0 358.0 Q249.0 362.7 229.4 341.0 Q203.9 325.0 207.2 300.0 Q203.9 275.0 229.4 259.0 Q249.0 237.3 283.0 242.0 Z" stroke-width="1.8"/><path d="M257.15279977433255 309.93420974162154 Q271.15279977433255 295.93420974162154 287.15279977433255 307.93420974162154 M295.15279977433255 281.93420974162154 Q307.15279977433255 273.93420974162154 317.15279977433255 285.93420974162154" fill="none" stroke-width="0.9"/><path d="M434.0 256.7 Q462.6 251.1 479.3 268.2 Q503.3 278.0 503.4 297.4 Q512.0 315.6 495.0 330.7 Q486.4 349.7 458.1 352.4 Q434.0 365.2 409.9 352.4 Q381.6 349.7 373.0 330.7 Q356.0 315.6 364.6 297.4 Q364.7 278.0 388.7 268.2 Q405.4 251.1 434.0 256.7 Z" stroke-width="1.8"/><path d="M407.94958833552533 315.8676401847776 Q421.94958833552533 301.8676401847776 437.94958833552533 313.8676401847776 M445.94958833552533 287.8676401847776 Q457.94958833552533 279.8676401847776 467.94958833552533 291.8676401847776" fill="none" stroke-width="0.9"/><path d="M590.0 230.0 Q621.2 225.4 639.2 246.1 Q663.0 261.1 659.6 285.0 Q663.0 308.9 639.2 323.9 Q621.2 344.6 590.0 340.0 Q558.8 344.6 540.8 323.9 Q517.0 308.9 520.4 285.0 Q517.0 261.1 540.8 246.1 Q558.8 225.4 590.0 230.0 Z" stroke-width="1.8"/><path d="M563.6152081418561 294.5530361968095 Q577.6152081418561 280.5530361968095 593.6152081418561 292.5530361968095 M601.6152081418561 266.5530361968095 Q613.6152081418561 258.5530361968095 623.6152081418561 270.5530361968095" fill="none" stroke-width="0.9"/><path d="M23.0 262.4 Q53.9 256.9 72.2 274.0 Q97.4 284.2 98.4 303.4 Q106.6 321.6 89.3 336.8 Q79.4 355.6 49.2 358.6 Q23.0 371.5 -3.2 358.6 Q-33.4 355.6 -43.3 336.8 Q-60.6 321.6 -52.4 303.4 Q-51.4 284.2 -26.2 274.0 Q-7.9 256.9 23.0 262.4 Z" stroke-width="1.8"/><path d="M-3.041780828462837 321.87753334397814 Q10.958219171537163 307.87753334397814 26.958219171537163 319.87753334397814 M34.958219171537166 293.87753334397814 Q46.958219171537166 285.87753334397814 56.958219171537166 297.87753334397814" fill="none" stroke-width="0.9"/><g transform="translate(39.428554642117824 349.8368134051269) rotate(205.45263504142378) scale(1.1664125175249433)" stroke-width="0.94"><path d="M0 0 C-4 -3 -10 -3 -8 -8 C-13 -10 -11 -16 -6 -15 C-9 -21 -4 -26 0 -22 C4 -26 9 -21 6 -15 C11 -16 13 -10 8 -8 C10 -3 4 -3 0 0 Z"/><path d="M0 3 V-19" fill="none" stroke-width="0.69"/></g><g transform="translate(66.09409527674725 350.2233876038986) rotate(161.07962063129258) scale(1.1779771597604514)" stroke-width="0.93"><path d="M0 0 C-4 -3 -10 -3 -8 -8 C-13 -10 -11 -16 -6 -15 C-9 -21 -4 -26 0 -22 C4 -26 9 -21 6 -15 C11 -16 13 -10 8 -8 C10 -3 4 -3 0 0 Z"/><path d="M0 3 V-19" fill="none" stroke-width="0.68"/></g><g transform="translate(93.55859264260162 353.1016762152793) rotate(155.6474073737531) scale(1.1258503156561315)" stroke-width="0.98"><path d="M0 0 C-4 -3 -10 -3 -8 -8 C-13 -10 -11 -16 -6 -15 C-9 -21 -4 -26 0 -22 C4 -26 9 -21 6 -15 C11 -16 13 -10 8 -8 C10 -3 4 -3 0 0 Z"/><path d="M0 3 V-19" fill="none" stroke-width="0.71"/></g><g transform="translate(113.08804644990207 353.33502348114047) rotate(191.60630895247434) scale(1.0604700840924615)" stroke-width="1.04"><path d="M0 0 C-4 -3 -10 -3 -8 -8 C-13 -10 -11 -16 -6 -15 C-9 -21 -4 -26 0 -22 C4 -26 9 -21 6 -15 C11 -16 13 -10 8 -8 C10 -3 4 -3 0 0 Z"/><path d="M0 3 V-19" fill="none" stroke-width="0.75"/></g><g transform="translate(149.78632104958535 355.5066089357579) rotate(189.23535201203043) scale(1.2038906761446428)" stroke-width="0.91"><path d="M0 0 C-4 -3 -10 -3 -8 -8 C-13 -10 -11 -16 -6 -15 C-9 -21 -4 -26 0 -22 C4 -26 9 -21 6 -15 C11 -16 13 -10 8 -8 C10 -3 4 -3 0 0 Z"/><path d="M0 3 V-19" fill="none" stroke-width="0.66"/></g><g transform="translate(165.88992914168196 342.21001031729446) rotate(181.70287597022872) scale(1.0648877762922138)" stroke-width="1.03"><path d="M0 0 C-4 -3 -10 -3 -8 -8 C-13 -10 -11 -16 -6 -15 C-9 -21 -4 -26 0 -22 C4 -26 9 -21 6 -15 C11 -16 13 -10 8 -8 C10 -3 4 -3 0 0 Z"/><path d="M0 3 V-19" fill="none" stroke-width="0.75"/></g><g transform="translate(192.28249915357515 345.387202191313) rotate(151.80495535348732) scale(1.1659836153058212)" stroke-width="0.94"><path d="M0 0 C-4 -3 -10 -3 -8 -8 C-13 -10 -11 -16 -6 -15 C-9 -21 -4 -26 0 -22 C4 -26 9 -21 6 -15 C11 -16 13 -10 8 -8 C10 -3 4 -3 0 0 Z"/><path d="M0 3 V-19" fill="none" stroke-width="0.69"/></g><g transform="translate(221.2863733998799 353.79397979925943) rotate(181.1474468858446) scale(1.2100729269797943)" stroke-width="0.91"><path d="M0 0 C-4 -3 -10 -3 -8 -8 C-13 -10 -11 -16 -6 -15 C-9 -21 -4 -26 0 -22 C4 -26 9 -21 6 -15 C11 -16 13 -10 8 -8 C10 -3 4 -3 0 0 Z"/><path d="M0 3 V-19" fill="none" stroke-width="0.66"/></g><g transform="translate(247.9972778264815 351.27429344646515) rotate(177.43979289597345) scale(1.1195407249159715)" stroke-width="0.98"><path d="M0 0 C-4 -3 -10 -3 -8 -8 C-13 -10 -11 -16 -6 -15 C-9 -21 -4 -26 0 -22 C4 -26 9 -21 6 -15 C11 -16 13 -10 8 -8 C10 -3 4 -3 0 0 Z"/><path d="M0 3 V-19" fill="none" stroke-width="0.71"/></g><g transform="translate(279.971874405557 355.9396829831868) rotate(200.4129329695717) scale(1.2269524053744874)" stroke-width="0.90"><path d="M0 0 C-4 -3 -10 -3 -8 -8 C-13 -10 -11 -16 -6 -15 C-9 -21 -4 -26 0 -22 C4 -26 9 -21 6 -15 C11 -16 13 -10 8 -8 C10 -3 4 -3 0 0 Z"/><path d="M0 3 V-19" fill="none" stroke-width="0.65"/></g><g transform="translate(297.7833266041866 345.21532262251066) rotate(167.34239683885212) scale(1.0675558748899816)" stroke-width="1.03"><path d="M0 0 C-4 -3 -10 -3 -8 -8 C-13 -10 -11 -16 -6 -15 C-9 -21 -4 -26 0 -22 C4 -26 9 -21 6 -15 C11 -16 13 -10 8 -8 C10 -3 4 -3 0 0 Z"/><path d="M0 3 V-19" fill="none" stroke-width="0.75"/></g><g transform="translate(329.19545463692486 347.6055972688589) rotate(200.79501731287073) scale(1.1466283829264836)" stroke-width="0.96"><path d="M0 0 C-4 -3 -10 -3 -8 -8 C-13 -10 -11 -16 -6 -15 C-9 -21 -4 -26 0 -22 C4 -26 9 -21 6 -15 C11 -16 13 -10 8 -8 C10 -3 4 -3 0 0 Z"/><path d="M0 3 V-19" fill="none" stroke-width="0.70"/></g><g transform="translate(357.49650859983774 353.86233682623924) rotate(150.03269622333423) scale(1.1024293536824028)" stroke-width="1.00"><path d="M0 0 C-4 -3 -10 -3 -8 -8 C-13 -10 -11 -16 -6 -15 C-9 -21 -4 -26 0 -22 C4 -26 9 -21 6 -15 C11 -16 13 -10 8 -8 C10 -3 4 -3 0 0 Z"/><path d="M0 3 V-19" fill="none" stroke-width="0.73"/></g><g transform="translate(382.92326313725016 348.57982186419133) rotate(208.82153647045754) scale(1.1493560970198202)" stroke-width="0.96"><path d="M0 0 C-4 -3 -10 -3 -8 -8 C-13 -10 -11 -16 -6 -15 C-9 -21 -4 -26 0 -22 C4 -26 9 -21 6 -15 C11 -16 13 -10 8 -8 C10 -3 4 -3 0 0 Z"/><path d="M0 3 V-19" fill="none" stroke-width="0.70"/></g><g transform="translate(398.87646012600436 350.81236877127634) rotate(196.71065152059904) scale(1.1174438967125357)" stroke-width="0.98"><path d="M0 0 C-4 -3 -10 -3 -8 -8 C-13 -10 -11 -16 -6 -15 C-9 -21 -4 -26 0 -22 C4 -26 9 -21 6 -15 C11 -16 13 -10 8 -8 C10 -3 4 -3 0 0 Z"/><path d="M0 3 V-19" fill="none" stroke-width="0.72"/></g><g transform="translate(425.045730380226 346.65619875648684) rotate(207.84457299562584) scale(1.2395101292484398)" stroke-width="0.89"><path d="M0 0 C-4 -3 -10 -3 -8 -8 C-13 -10 -11 -16 -6 -15 C-9 -21 -4 -26 0 -22 C4 -26 9 -21 6 -15 C11 -16 13 -10 8 -8 C10 -3 4 -3 0 0 Z"/><path d="M0 3 V-19" fill="none" stroke-width="0.65"/></g><g transform="translate(451.4159001530346 345.4494312845038) rotate(156.0627785374023) scale(1.0649733507352692)" stroke-width="1.03"><path d="M0 0 C-4 -3 -10 -3 -8 -8 C-13 -10 -11 -16 -6 -15 C-9 -21 -4 -26 0 -22 C4 -26 9 -21 6 -15 C11 -16 13 -10 8 -8 C10 -3 4 -3 0 0 Z"/><path d="M0 3 V-19" fill="none" stroke-width="0.75"/></g><g transform="translate(485.5642581421277 344.48749379477715) rotate(183.5577084966237) scale(1.1618562193752555)" stroke-width="0.95"><path d="M0 0 C-4 -3 -10 -3 -8 -8 C-13 -10 -11 -16 -6 -15 C-9 -21 -4 -26 0 -22 C4 -26 9 -21 6 -15 C11 -16 13 -10 8 -8 C10 -3 4 -3 0 0 Z"/><path d="M0 3 V-19" fill="none" stroke-width="0.69"/></g><g transform="translate(504.2882129834844 352.2465190200009) rotate(157.85802502299717) scale(1.2109287809277918)" stroke-width="0.91"><path d="M0 0 C-4 -3 -10 -3 -8 -8 C-13 -10 -11 -16 -6 -15 C-9 -21 -4 -26 0 -22 C4 -26 9 -21 6 -15 C11 -16 13 -10 8 -8 C10 -3 4 -3 0 0 Z"/><path d="M0 3 V-19" fill="none" stroke-width="0.66"/></g><g transform="translate(529.3980958516764 347.8905786414499) rotate(162.77194038054537) scale(1.1174487442976497)" stroke-width="0.98"><path d="M0 0 C-4 -3 -10 -3 -8 -8 C-13 -10 -11 -16 -6 -15 C-9 -21 -4 -26 0 -22 C4 -26 9 -21 6 -15 C11 -16 13 -10 8 -8 C10 -3 4 -3 0 0 Z"/><path d="M0 3 V-19" fill="none" stroke-width="0.72"/></g><g transform="translate(565.6511486746243 353.247761043149) rotate(168.24870899225937) scale(1.2712162781872427)" stroke-width="0.87"><path d="M0 0 C-4 -3 -10 -3 -8 -8 C-13 -10 -11 -16 -6 -15 C-9 -21 -4 -26 0 -22 C4 -26 9 -21 6 -15 C11 -16 13 -10 8 -8 C10 -3 4 -3 0 0 Z"/><path d="M0 3 V-19" fill="none" stroke-width="0.63"/></g><g transform="translate(582.5285226572132 347.51984491900873) rotate(201.26261410207383) scale(1.2104589141476152)" stroke-width="0.91"><path d="M0 0 C-4 -3 -10 -3 -8 -8 C-13 -10 -11 -16 -6 -15 C-9 -21 -4 -26 0 -22 C4 -26 9 -21 6 -15 C11 -16 13 -10 8 -8 C10 -3 4 -3 0 0 Z"/><path d="M0 3 V-19" fill="none" stroke-width="0.66"/></g><path d="M262 344 V352" fill="none" stroke-width="1.1"/><ellipse cx="262" cy="361" rx="5.5" ry="7" stroke-width="1.2"/><path d="M255 356 Q262 347 269 356 Z" stroke-width="1.2"/><path d="M434 342 V350" fill="none" stroke-width="1.1"/><ellipse cx="434" cy="359" rx="5.5" ry="7" stroke-width="1.2"/><path d="M427 354 Q434 345 441 354 Z" stroke-width="1.2"/><g transform="translate(44 578) scale(0.9)" stroke-width="1.44"><path d="M-6 0 Q-7 -12 -5 -18 H5 Q7 -12 6 0 Z"/><path d="M-17 -16 Q-16 -34 0 -35 Q16 -34 17 -16 Q0 -12 -17 -16 Z"/><circle cx="-7" cy="-25" r="3"/><circle cx="5" cy="-28" r="2.6"/><circle cx="10" cy="-20" r="2"/></g><g transform="translate(70 586) scale(0.7)" stroke-width="1.86"><path d="M-6 0 Q-7 -12 -5 -18 H5 Q7 -12 6 0 Z"/><path d="M-17 -16 Q-16 -34 0 -35 Q16 -34 17 -16 Q0 -12 -17 -16 Z"/><circle cx="-7" cy="-25" r="3"/><circle cx="5" cy="-28" r="2.6"/><circle cx="10" cy="-20" r="2"/></g><clipPath id="k153"><path d="M196.0 522.0 L572.0 522.0 L640.0 790.0 L20.0 790.0 Z"/></clipPath><path d="M196.0 522.0 L572.0 522.0 L640.0 790.0 L20.0 790.0 Z" stroke-width="2.0"/><g clip-path="url(#k153)" fill="none"><path d="M233.6 522.0 L82.0 790.0 M271.2 522.0 L144.0 790.0 M308.8 522.0 L206.0 790.0 M346.4 522.0 L268.0 790.0 M384.0 522.0 L330.0 790.0 M421.6 522.0 L392.0 790.0 M459.2 522.0 L454.0 790.0 M496.8 522.0 L516.0 790.0 M534.4 522.0 L578.0 790.0 M169.6 562.2 L582.2 562.2 M139.7 607.8 L593.8 607.8 M104.5 661.4 L607.4 661.4 M64.0 723.0 L623.0 723.0 " fill="none" stroke-width="1.2"/></g><path d="M196.0 522.0 L572.0 522.0 L640.0 790.0 L20.0 790.0 Z" fill="none" stroke-width="2.0"/><g transform="translate(272 580) rotate(0) scale(0.95)" stroke-width="2.105"><use href="#ju-tail"/><use href="#ju-torso"/><use href="#ju-feet-sit"/><use href="#ju-arm" transform="translate(-23 -68) rotate(12)"/><use href="#ju-arm" transform="translate(23 -68) rotate(-40)"/><g transform="translate(0 -108) rotate(0)"><use href="#ju-head"/><use href="#eye" transform="translate(-14 -4) scale(1.0)"/><use href="#eye" transform="translate(14 -4) scale(1.0)"/></g></g><path d="M301.9 518.1 H315.9 L313.9 534.1 H303.9 Z" stroke-width="1.4"/><g transform="translate(392 586) rotate(0) scale(0.95)" stroke-width="2.105"><use href="#br-torso"/><use href="#br-legs-sit"/><use href="#br-arm" transform="translate(-44 -94) rotate(17)"/><use href="#br-arm" transform="translate(44 -94) rotate(-17)"/><g transform="translate(0 -150) rotate(0)"><use href="#br-head"/><use href="#eye-happy" transform="translate(-16 -6) scale(1.0)"/><use href="#eye-happy" transform="translate(16 -6) scale(1.0)"/></g></g><ellipse cx="392" cy="544" rx="40" ry="12" stroke-width="1.8"/><clipPath id="k154"><path d="M356 540 Q392 522 428 540 Q392 552 356 540 Z"/></clipPath><path d="M356 540 Q392 522 428 540 Q392 552 356 540 Z" stroke-width="1.4"/><g clip-path="url(#k154)" fill="none"><path d="M366 530 L380 548 M380 526 L396 550 M396 524 L410 548 M410 526 L422 544 M362 542 L376 526 M378 546 L394 524 M394 548 L410 526 M410 546 L422 532" fill="none" stroke-width="1"/></g><path d="M356 540 Q392 522 428 540 Q392 552 356 540 Z" fill="none" stroke-width="1.4"/><path d="M352 546 q4 4 8 0 q4 4 8 0 q4 4 8 0 q4 4 8 0 q4 4 8 0 q4 4 8 0 q4 4 8 0 q4 4 8 0 q4 4 8 0 q4 4 8 0" fill="none" stroke-width="1"/><g transform="translate(392 586) scale(0.95)" stroke-width="2.105"><use href="#br-arm" transform="translate(-44 -94) rotate(17)"/><use href="#br-arm" transform="translate(44 -94) rotate(-17)"/></g><g transform="translate(512 600) rotate(0) scale(0.95)" stroke-width="2.105"><use href="#to-torso"/><use href="#to-legs-sit"/><use href="#to-arm" transform="translate(-48 -70) rotate(150)"/><use href="#to-arm" transform="translate(48 -70) rotate(-14)"/><g transform="translate(0 -122) rotate(0)"><use href="#to-head"/><use href="#eye" transform="translate(-17 2) scale(0.95)"/><use href="#eye" transform="translate(17 2) scale(0.95)"/></g></g><path d="M437.2 513.2 L463.2 513.2 L450.2 491.2 Z" stroke-width="1.5"/><path d="M442.2 508.2 L458.2 508.2" fill="none" stroke-width="1"/><g transform="translate(512 600) scale(0.95)" stroke-width="2.105"><use href="#to-arm" transform="translate(-48 -70) rotate(150)"/></g><rect x="316" y="600" width="24" height="44" rx="6" stroke-width="1.7"/><rect x="314" y="592" width="28" height="12" rx="4" stroke-width="1.6"/><path d="M316 616 H340" fill="none" stroke-width="1"/><ellipse cx="410" cy="648" rx="40" ry="11" stroke-width="1.7"/><path d="M374 646 L402 646 L388 626 Z" stroke-width="1.4"/><path d="M379 640 L397 640" fill="none" stroke-width="0.9"/><path d="M398 642 L426 642 L412 622 Z" stroke-width="1.4"/><path d="M403 636 L421 636" fill="none" stroke-width="0.9"/><path d="M420 648 L448 648 L434 628 Z" stroke-width="1.4"/><path d="M425 642 L443 642" fill="none" stroke-width="0.9"/><ellipse cx="250" cy="740" rx="5.5" ry="7" stroke-width="1.2"/><path d="M243 735 Q250 726 257 735 Z" stroke-width="1.2"/><ellipse cx="520" cy="750" rx="5.5" ry="7" stroke-width="1.2"/><path d="M513 745 Q520 736 527 745 Z" stroke-width="1.2"/><ellipse cx="366" cy="748" rx="5.5" ry="7" stroke-width="1.2"/><path d="M359 743 Q366 734 373 743 Z" stroke-width="1.2"/><g transform="translate(300 712) rotate(0) scale(1.0)" stroke-width="2.0"><use href="#pb-tail"/><use href="#pb-torso"/><use href="#pb-feet-sit"/><use href="#pb-arm" transform="translate(-19 -48) rotate(-28)"/><use href="#pb-arm" transform="translate(19 -48) rotate(-10)"/><g transform="translate(0 -74) rotate(0)"><use href="#pb-head"/><use href="#eye" transform="translate(-11 -5) scale(0.85)"/><use href="#eye" transform="translate(11 -5) scale(0.85)"/></g></g><path d="M266 682 Q268 704 286 706 Q304 704 306 682 Z" stroke-width="1.7"/><circle cx="274" cy="680" r="5" stroke-width="1.1"/><circle cx="284" cy="676" r="5" stroke-width="1.1"/><circle cx="294" cy="679" r="5" stroke-width="1.1"/><circle cx="279" cy="670" r="5" stroke-width="1.1"/><circle cx="290" cy="669" r="5" stroke-width="1.1"/><circle cx="300" cy="682" r="5" stroke-width="1.1"/><g transform="translate(300 712)" stroke-width="2"><use href="#pb-arm" transform="translate(-19 -48) rotate(-28)"/></g><g transform="translate(450 716) rotate(0) scale(1.0)" stroke-width="2.0"><use href="#mi-tail"/><use href="#mi-torso"/><use href="#mi-feet-sit"/><use href="#mi-arm" transform="translate(-17 -38) rotate(10)"/><use href="#mi-arm" transform="translate(17 -38) rotate(-150)"/><g transform="translate(0 -74) rotate(0)"><use href="#mi-head"/><use href="#eye" transform="translate(-13 0) scale(1.0)"/><use href="#eye" transform="translate(13 0) scale(1.0)"/></g></g><path d="M470.0 640.4 H484.0 L482.0 664.4 H472.0 Z" stroke-width="1.4"/><path d="M471.0 648.4 H483.0" fill="none" stroke-width="0.9"/><g transform="translate(450 716)" stroke-width="2"><use href="#mi-arm" transform="translate(17 -38) rotate(-150)"/></g><path d="M540 674 Q560 674 560 696 Q560 714 542 716" fill="none" stroke-width="5"/><path d="M540 674 Q560 674 560 696 Q560 714 542 716" fill="none" stroke="#fff" stroke-width="2"/><path d="M500 668 L492 658 L512 662 Q536 660 540 668 Q546 700 536 730 Q520 736 504 730 Q494 700 500 668 Z" stroke-width="1.9"/><path d="M500 680 Q520 686 540 680" fill="none" stroke-width="1"/><circle cx="520" cy="704" r="11" stroke-width="1.3"/><path d="M520 693 V715 M509 704 H531 M512 696 L528 712 M528 696 L512 712" fill="none" stroke-width="0.8"/><clipPath id="k155"><path d="M128 690 H226 L216 742 Q177 750 138 742 Z"/></clipPath><path d="M128 690 H226 L216 742 Q177 750 138 742 Z" stroke-width="1.9"/><g clip-path="url(#k155)" fill="none"><path d="M120 704 H236 M120 718 H236 M120 732 H236" fill="none" stroke-width="1.1"/><path d="M146 690 L150 750 M166 690 L168 750 M186 690 L186 750 M206 690 L204 750" fill="none" stroke-width="1.1"/></g><path d="M128 690 H226 L216 742 Q177 750 138 742 Z" fill="none" stroke-width="1.9"/><path d="M124 690 Q177 670 230 690 Q177 698 124 690 Z" stroke-width="1.8"/><path d="M150 684 Q177 648 204 684" fill="none" stroke-width="2.6"/><g transform="translate(214 650) rotate(0) scale(1.0)" stroke-width="2.0"><use href="#pi-tail"/><use href="#pi-torso"/><use href="#pi-feet"/><use href="#pi-arm" transform="translate(-20 -42) rotate(124)"/><use href="#pi-arm" transform="translate(20 -42) rotate(-14)"/><g transform="translate(0 -80) rotate(-8)"><use href="#pi-head"/><use href="#eye" transform="translate(-12 10) scale(0.95)"/><use href="#eye" transform="translate(12 10) scale(0.95)"/></g><use href="#pi-wag"/></g><path d="M157.1 595.9 L183.1 603.9 L175.1 579.9 Z" stroke-width="1.5"/><path d="M164.1 597.9 L178.1 601.9" fill="none" stroke-width="1"/><g transform="translate(214 650)" stroke-width="2"><use href="#pi-arm" transform="translate(-20 -42) rotate(124)"/></g>
</g>
<rect x="45" y="36" width="531" height="720" rx="14" fill="none" stroke-width="2.6"/>
</g>
</svg>
